<svg xmlns="http://www.w3.org/2000/svg" width="16" height="13.714" viewBox="0 0 16 13.714"><g transform="translate(0 -36.549)"><path d="M14.929,39.393a7.236,7.236,0,0,0-2.911-2.08A10.379,10.379,0,0,0,8,36.549a10.379,10.379,0,0,0-4.018.763,7.236,7.236,0,0,0-2.911,2.08A4.453,4.453,0,0,0,0,42.263a4.332,4.332,0,0,0,.808,2.509,6.555,6.555,0,0,0,2.21,1.964,5.7,5.7,0,0,1-.232.679q-.134.321-.241.527a3.624,3.624,0,0,1-.29.455q-.183.25-.277.353l-.308.339q-.214.236-.277.308a.628.628,0,0,0-.071.08l-.063.076-.054.08c-.03.044-.043.073-.04.085a.237.237,0,0,1-.018.089.118.118,0,0,0,0,.107v.009a.455.455,0,0,0,.143.246.358.358,0,0,0,.241.094H1.58a6.732,6.732,0,0,0,1.018-.2,9.757,9.757,0,0,0,4.107-2.161A12.208,12.208,0,0,0,8,47.977a10.376,10.376,0,0,0,4.018-.763,7.236,7.236,0,0,0,2.911-2.08,4.381,4.381,0,0,0,0-5.741Zm-1,5.147a6.413,6.413,0,0,1-2.518,1.674A9.263,9.263,0,0,1,8,46.835a10.081,10.081,0,0,1-1.161-.071L6.33,46.71l-.384.339a8.8,8.8,0,0,1-2.455,1.527,6.406,6.406,0,0,0,.625-1.536l.241-.857-.777-.446a5.445,5.445,0,0,1-1.8-1.567,3.258,3.258,0,0,1-.638-1.906,3.374,3.374,0,0,1,.933-2.277,6.412,6.412,0,0,1,2.518-1.674A9.259,9.259,0,0,1,8,37.692a9.258,9.258,0,0,1,3.406.621,6.414,6.414,0,0,1,2.518,1.674,3.245,3.245,0,0,1,0,4.554Z" transform="translate(0)" fill="#fff"/></g></svg>