<svg xmlns="http://www.w3.org/2000/svg" width="32" height="32" viewBox="0 0 32 32"><g transform="translate(-302.016 -209.037)"><g transform="translate(302.016 209.037)" fill="#2a251e" stroke="#8e8e8e" stroke-width="1" opacity="0.5"><rect width="32" height="32" stroke="none"/><rect x="0.5" y="0.5" width="31" height="31" fill="none"/></g><path d="M-706.957-445.963a3.03,3.03,0,0,1-3.027-3.027v-5.946a3.03,3.03,0,0,1,3.027-3.027h5.946a3.03,3.03,0,0,1,3.027,3.027v5.946a3.03,3.03,0,0,1-3.027,3.027Zm-1.721-8.973v5.946a1.723,1.723,0,0,0,1.721,1.721h5.946a1.723,1.723,0,0,0,1.721-1.721v-5.946a1.723,1.723,0,0,0-1.721-1.721h-5.946A1.723,1.723,0,0,0-708.678-454.936Zm1.6,2.973a3.094,3.094,0,0,1,3.091-3.09,3.094,3.094,0,0,1,3.091,3.09,3.094,3.094,0,0,1-3.091,3.091A3.094,3.094,0,0,1-707.075-451.963Zm1.306,0a1.787,1.787,0,0,0,1.785,1.785,1.787,1.787,0,0,0,1.785-1.785,1.787,1.787,0,0,0-1.785-1.784A1.787,1.787,0,0,0-705.769-451.963Zm4.243-3.183a.732.732,0,0,1,.731-.731.732.732,0,0,1,.731.731.732.732,0,0,1-.731.731A.732.732,0,0,1-701.525-455.146Z" transform="translate(1022 677)" fill="#fff"/></g></svg>