<svg xmlns="http://www.w3.org/2000/svg" width="24" height="24" viewBox="0 0 24 24"><g transform="translate(-2982.94 -9921.95)"><path d="M2992.144,9921.95a12.225,12.225,0,0,0-3.711,1.538,2.815,2.815,0,0,1-3.954,3.955,12.239,12.239,0,0,0-1.539,3.71,2.815,2.815,0,0,1,0,5.593,12.244,12.244,0,0,0,1.539,3.711,2.814,2.814,0,0,1,3.954,3.954,12.249,12.249,0,0,0,3.71,1.539,2.815,2.815,0,0,1,5.593,0,12.251,12.251,0,0,0,3.71-1.539,2.814,2.814,0,0,1,3.954-3.954,12.245,12.245,0,0,0,1.539-3.711,2.815,2.815,0,0,1,0-5.593,12.245,12.245,0,0,0-1.539-3.71,2.815,2.815,0,0,1-3.954-3.955,12.227,12.227,0,0,0-3.711-1.538,2.819,2.819,0,0,1-5.592,0Zm2.8,6.231a5.768,5.768,0,1,0,5.768,5.769A5.768,5.768,0,0,0,2994.94,9928.182Z" fill="#d7a63d" fill-rule="evenodd"/><path d="M3537.257,10613.545h-2.8v-1.745h2.8Z" transform="translate(-540.919 -676.589)" fill="#d7a63d" fill-rule="evenodd"/><path d="M3537.257,10116.928h-2.8v-8.027h2.8Z" transform="translate(-540.919 -183.357)" fill="#d7a63d" fill-rule="evenodd"/></g></svg>