<svg xmlns="http://www.w3.org/2000/svg" width="20" height="11.165" viewBox="0 0 20 11.165"><g transform="translate(-430 -643)"><path d="M17.25,15.58a10.5,10.5,0,0,0-14.568,0L0,18.194l2.749,2.679a10.5,10.5,0,0,0,14.568,0L20,18.259Zm-.411,4.828a9.816,9.816,0,0,1-13.612,0L.955,18.194,3.16,16.045a9.816,9.816,0,0,1,13.612,0l2.272,2.214Z" transform="translate(430 630.355)" fill="#fff"/><path d="M23.937,21.57a2.338,2.338,0,0,0-2.365,2.3.338.338,0,0,0,.676,0,1.67,1.67,0,0,1,1.689-1.646.329.329,0,1,0,0-.658Z" transform="translate(415.716 624.368)" fill="#fff"/><path d="M20.964,16.57a4.281,4.281,0,1,0,4.392,4.28A4.342,4.342,0,0,0,20.964,16.57Zm0,7.9A3.623,3.623,0,1,1,24.68,20.85,3.674,3.674,0,0,1,20.964,24.472Z" transform="translate(419.027 627.722)" fill="#fff"/></g></svg>