<svg xmlns="http://www.w3.org/2000/svg" width="32" height="32" viewBox="0 0 32 32"><g transform="translate(-184 -272.722)"><g transform="translate(184 272.722)" fill="#2a251e" stroke="#8e8e8e" stroke-width="1" opacity="0.5"><rect width="32" height="32" stroke="none"/><rect x="0.5" y="0.5" width="31" height="31" fill="none"/></g><path d="M87.008,143.653a53.769,53.769,0,0,0,5.991.221,53.76,53.76,0,0,0,5.991-.221,2.022,2.022,0,0,0,1.73-1.573,25.848,25.848,0,0,0,0-7.564,2.021,2.021,0,0,0-1.73-1.573A53.771,53.771,0,0,0,93,132.722a53.8,53.8,0,0,0-5.992.222,2.019,2.019,0,0,0-1.728,1.573,25.621,25.621,0,0,0,0,7.564A2.02,2.02,0,0,0,87.008,143.653Zm3.927-8.162,5.086,2.653-5.086,2.638Z" transform="translate(107 150)" fill="#fff"/></g></svg>