<svg xmlns="http://www.w3.org/2000/svg" width="35" height="35" xmlns:xlink="http://www.w3.org/1999/xlink"><defs><path id="a" d="M997.23 2508.4v2.9h2.04v8.7h3.76v-8.7h2.56l.33-2.9h-2.9v-1.73c0-.8.2-1.18 1.4-1.18h1.5v-2.9h-2.53c-2.86 0-4.13 1.2-4.13 3.86v1.94zm4.35 20.1a17.1 17.1 0 0 1-12.17-5.03 17.1 17.1 0 0 1-5.03-12.17c0-4.6 1.8-8.92 5.04-12.17a17.1 17.1 0 0 1 12.18-5.04c4.6 0 8.92 1.78 12.17 5.03a17.1 17.1 0 0 1 5.04 12.17c0 4.6-1.8 8.92-5.05 12.17a17.1 17.1 0 0 1-12.17 5.04z"/></defs><use fill="#c4d8ea" xlink:href="#a" transform="translate(-984 -2494)"/></svg>