<svg xmlns="http://www.w3.org/2000/svg" width="36" height="35" xmlns:xlink="http://www.w3.org/1999/xlink"><defs><path id="a" d="M1038.9 2516.37a9.4 9.4 0 0 0 5.08 1.48c5.9 0 9.42-4.8 9.42-9.42v-.43a6.66 6.66 0 0 0 1.64-1.7c-.6.26-1.25.43-1.9.5a3.3 3.3 0 0 0 1.46-1.82c-.66.4-1.37.66-2.1.8a3.33 3.33 0 0 0-2.42-1.04h-.1a3.3 3.3 0 0 0-3.13 4.06 9.44 9.44 0 0 1-6.83-3.46 3.3 3.3 0 0 0 1.03 4.42 3.34 3.34 0 0 1-1.5-.4v.03a3.32 3.32 0 0 0 2.66 3.24 3.36 3.36 0 0 1-1.5.06 3.3 3.3 0 0 0 3.1 2.3 6.6 6.6 0 0 1-4.9 1.37zm7.14 12.14a17.1 17.1 0 0 1-12.17-5.03 17.1 17.1 0 0 1-5.04-12.17c0-4.6 1.8-8.92 5.04-12.17a17.1 17.1 0 0 1 12.17-5.04c4.6 0 8.92 1.78 12.17 5.03a17.1 17.1 0 0 1 5.06 12.17c0 4.6-1.8 8.92-5.05 12.17a17.1 17.1 0 0 1-12.16 5.04z"/></defs><use fill="#c4d8ea" xlink:href="#a" transform="translate(-1028 -2494)"/></svg>