<svg xmlns="http://www.w3.org/2000/svg" width="35" height="35" xmlns:xlink="http://www.w3.org/1999/xlink"><defs><path id="a" d="M1092.8 2513.96c.17 0 .34.12.44.23l.56.6 1.17 1.22c.2.22.36.32.72.32h2.16a314.76 314.76 0 0 0 .96 0c.16 0 .4-.25.46-.35.08-.14.23-.6-.03-.9-.67-.75-1.36-1.47-2.03-2.16l-.62-.66a.4.4 0 0 1-.12-.26c0-.1.07-.22.12-.3a61.96 61.96 0 0 0 2.64-3.9c.28-.44.26-.77.2-.9-.06-.12-.25-.3-.46-.3a169.93 169.93 0 0 1-2.73-.03h-.3c-.35 0-.6.02-.8.4-.87 1.95-1.62 3.22-2.2 3.8a.8.8 0 0 1-.5.24c-.15 0-.34-.1-.37-.38v-3.7c0-.38-.16-.5-.3-.57-.2-.15-.5-.16-.64-.16h-2.42c-.74 0-1.13.3-1.14.47 0 .13.2.23.4.33l.18.1c.2.12.4.54.4.83v2.5c0 .2-.03.4-.24.55a.47.47 0 0 1-.3.1c-.16 0-.26-.04-.33-.13a13.6 13.6 0 0 1-1.6-2.6l-.68-1.24v-.02c-.07-.1-.14-.22-.26-.3-.15-.1-.35-.17-.64-.17h-1.46l-.96.02c-.26 0-.44.06-.52.2-.08.1-.04.27 0 .4.9 1.86 1.7 3.4 2.54 4.83 1.17 2.03 2.2 3.06 3.75 3.82.38.2 1.08.38 1.9.38h1.7c.24 0 .6-.18.6-.4v-1.3c0-.33.3-.47.52-.57h.03c.05-.03.1-.04.16-.04zm-2.3 14.55a17.1 17.1 0 0 1-12.17-5.03 17.1 17.1 0 0 1-5.04-12.17c0-4.6 1.8-8.92 5.03-12.17a17.1 17.1 0 0 1 12.18-5.04c4.6 0 8.92 1.78 12.18 5.03a17.1 17.1 0 0 1 5.04 12.17c0 4.6-1.8 8.92-5.04 12.17a17.1 17.1 0 0 1-12.17 5.04z"/></defs><use fill="#c4d8ea" xlink:href="#a" transform="translate(-1073 -2494)"/></svg>