<svg xmlns="http://www.w3.org/2000/svg" width="35" height="35" xmlns:xlink="http://www.w3.org/1999/xlink"><defs><path id="a" d="M1135.3 2507.34v-2.27c0-.5-.14-.75-.45-.75-.32 0-.47.25-.47.75v2.27c0 .5.15.74.47.74.3 0 .46-.24.46-.74zm-5.07 5.44h1.16v-1H1128v1h1.13v6.15h1.08zm3.1 5.57v.58h.98v-5.33h-.96v4.08c-.2.3-.4.45-.6.45-.14 0-.2-.08-.24-.23v-4.3h-.97v4.22c0 .35.03.62.08.8.1.25.3.4.64.4.36 0 .72-.23 1.1-.67zm3.7-3.22v2.28c0 .5-.16.73-.44.73-.17 0-.33-.08-.5-.24v-3.26c.17-.16.33-.24.5-.24.27 0 .42.25.42.73zm.85 3.28c.07-.22.1-.6.1-1.07v-2.12c0-.5-.03-.85-.1-1.07-.13-.4-.4-.6-.77-.6-.34 0-.68.2-1 .58v-2.33h-.95v7.16h.96v-.5c.33.38.66.58 1 .58.4 0 .65-.2.78-.6zm2.78-3.26v.5h-.96v-.5c0-.5.16-.74.48-.74.32 0 .48.25.48.74zm.72 3.3c.12-.18.2-.38.23-.6l.03-.6v-.16h-1c0 .37 0 .6 0 .66-.06.26-.2.4-.44.4-.34 0-.5-.25-.5-.75v-.96h1.93v-1.1c0-.58-.1-1-.3-1.26a1.34 1.34 0 0 0-1.14-.55c-.5 0-.9.2-1.17.55-.2.26-.3.67-.3 1.26v1.87c0 .57.1 1 .3 1.26.3.37.68.55 1.2.55.5 0 .9-.2 1.15-.57zm-10.6-16.78l.78 2.84.74-2.84h1.1l-1.3 4.3v2.94h-1.1v-2.93c-.1-.54-.32-1.3-.66-2.3a156.9 156.9 0 0 0-.7-2zm5.2 2.33c.2.26.3.68.3 1.27v1.88c0 .6-.1 1-.3 1.27-.26.37-.64.55-1.13.55-.5 0-.87-.18-1.14-.55-.2-.27-.3-.68-.3-1.27v-1.88c0-.6.1-1 .3-1.28.28-.37.66-.56 1.15-.56.5 0 .87.2 1.14.55zm2.1-.5v4.36c.02.15.1.22.23.22.2 0 .4-.15.63-.45v-4.12h.97v5.4h-.97v-.6c-.38.45-.76.67-1.12.67-.3 0-.52-.13-.62-.4a2.73 2.73 0 0 1-.1-.8v-4.26zm-2.88 6.28c1.9 0 3.78.02 5.62.22.84.1 1.53.73 1.73 1.58.27 1.2.27 2.48.27 3.73v.1c0 1.2 0 2.53-.28 3.74-.2.85-.9 1.48-1.73 1.57-1.8.2-3.6.23-5.6.23h-.74c-2 0-3.8 0-5.63-.22a2.02 2.02 0 0 1-1.73-1.56c-.28-1.22-.28-2.53-.28-3.7v-.08c0-1.2 0-2.56.28-3.78.2-.85.9-1.48 1.73-1.58 1.84-.2 3.7-.22 5.63-.22zm11.8 13.7a17.1 17.1 0 0 0 5.03-12.18c0-4.6-1.8-8.92-5.04-12.17a17.1 17.1 0 0 0-12.18-5.04 17.1 17.1 0 0 0-12.17 5.03 17.1 17.1 0 0 0-5.04 12.17c0 4.6 1.8 8.92 5.05 12.17a17.1 17.1 0 0 0 12.17 5.04c4.6 0 8.92-1.8 12.17-5.03z"/></defs><use fill="#c4d8ea" xlink:href="#a" transform="translate(-1117 -2494)"/></svg>