<svg xmlns="http://www.w3.org/2000/svg" width="57" height="57" viewBox="0 0 57 57">
  <metadata><?xpacket begin="﻿" id="W5M0MpCehiHzreSzNTczkc9d"?>
<x:xmpmeta xmlns:x="adobe:ns:meta/" x:xmptk="Adobe XMP Core 5.6-c138 79.159824, 2016/09/14-01:09:01        ">
   <rdf:RDF xmlns:rdf="http://www.w3.org/1999/02/22-rdf-syntax-ns#">
      <rdf:Description rdf:about=""/>
   </rdf:RDF>
</x:xmpmeta>
                                                                                                    
                                                                                                    
                                                                                                    
                                                                                                    
                                                                                                    
                                                                                                    
                                                                                                    
                                                                                                    
                                                                                                    
                                                                                                    
                                                                                                    
                                                                                                    
                                                                                                    
                                                                                                    
                                                                                                    
                                                                                                    
                                                                                                    
                                                                                                    
                                                                                                    
                                                                                                    
                           
<?xpacket end="w"?></metadata>
<defs>
    <style>
      .cls-1 {
        fill: #fff;
        fill-rule: evenodd;
      }
    </style>
  </defs>
  <path id="paperplane" class="cls-1" d="M1514.19,778.285a1.806,1.806,0,0,0-.97-0.287,1.755,1.755,0,0,0-.99.3l-53.44,35.625a1.782,1.782,0,0,0,.33,3.134l13.94,5.577,6.55,11.467a1.783,1.783,0,0,0,1.53.9h0.02a1.778,1.778,0,0,0,1.52-.866l3.7-6.168,17.27,6.9a1.743,1.743,0,0,0,.66.129,1.778,1.778,0,0,0,1.76-1.49l8.9-53.437A1.778,1.778,0,0,0,1514.19,778.285Zm-50.6,36.723,41.28-27.522-30.02,32.128a3.194,3.194,0,0,0-.47-0.288Zm12.56,5.859c0-.007-0.01-0.01-0.01-0.017l33.74-36.116-28.77,44.82Zm26.77,9.874-15.22-6.085a3.468,3.468,0,0,0-1.11-.212l23.43-36.318Z" transform="translate(-1458 -778)"/>
</svg>
