<svg xmlns="http://www.w3.org/2000/svg" width="58" height="58" viewBox="0 0 58 58">
  <metadata><?xpacket begin="﻿" id="W5M0MpCehiHzreSzNTczkc9d"?>
<x:xmpmeta xmlns:x="adobe:ns:meta/" x:xmptk="Adobe XMP Core 5.6-c138 79.159824, 2016/09/14-01:09:01        ">
   <rdf:RDF xmlns:rdf="http://www.w3.org/1999/02/22-rdf-syntax-ns#">
      <rdf:Description rdf:about=""/>
   </rdf:RDF>
</x:xmpmeta>
                                                                                                    
                                                                                                    
                                                                                                    
                                                                                                    
                                                                                                    
                                                                                                    
                                                                                                    
                                                                                                    
                                                                                                    
                                                                                                    
                                                                                                    
                                                                                                    
                                                                                                    
                                                                                                    
                                                                                                    
                                                                                                    
                                                                                                    
                                                                                                    
                                                                                                    
                                                                                                    
                           
<?xpacket end="w"?></metadata>
<defs>
    <style>
      .cls-1 {
        fill: #fff;
        fill-rule: evenodd;
      }
    </style>
  </defs>
  <path id="pen_img" data-name="pen img" class="cls-1" d="M732.279,782.676A15.481,15.481,0,0,0,721.5,778a11.856,11.856,0,0,0-8.462,3.4l-8.822,8.889c-0.026.025-.058,0.042-0.085,0.069s-0.023.033-.037,0.048l0,0-18.724,18.865a7.293,7.293,0,0,0-1.835,3.09l-4.257,15.421a12.531,12.531,0,0,0-.283,1.869A6.349,6.349,0,0,0,685.352,836a12.949,12.949,0,0,0,2.1-.34l15.365-4.039a7.3,7.3,0,0,0,3.091-1.841L733.57,801.9C738.6,796.86,738.035,788.421,732.279,782.676Zm-24.253,38.453a14.745,14.745,0,0,0-1.3-4.763l17.135-17.134a8.836,8.836,0,0,1-1.786,9.07c-0.014.014-.032,0.023-0.046,0.037l0.023,0.023L708.044,822.48C708.046,822.03,708.067,821.587,708.026,821.129Zm-2.212-6.416a14.918,14.918,0,0,0-6.1-5.838L716.99,791.6a12.513,12.513,0,0,1,6.122,5.814Zm-7.808-6.694a14.446,14.446,0,0,0-5.2-1.085l13.962-14.069a8.7,8.7,0,0,1,8.315-1.924Zm-11.452,24.125a8.844,8.844,0,0,1-1.23.23,2.726,2.726,0,0,1-2.7-2.719,9.108,9.108,0,0,1,.184-1.019l1.908-6.914a8.591,8.591,0,0,1,8.579,8.652Zm8.53-2.241a10.117,10.117,0,0,0-3.03-6.954,10.331,10.331,0,0,0-6.826-3.081l1.806-6.538a3.578,3.578,0,0,1,.708-1.241c3.636-2.6,9.227-1.834,13.112,2.054,4.108,4.108,4.744,10.124,1.579,13.717a3.768,3.768,0,0,1-.651.285Zm35.921-30.567-3.053,3.077c0-.409.049-0.8,0.012-1.221a16.013,16.013,0,0,0-15.355-14.21l3-3.027a8.241,8.241,0,0,1,5.888-2.331A12.527,12.527,0,0,1,733.354,792.8,8.305,8.305,0,0,1,731.005,799.336Z" transform="translate(-679 -778)"/>
</svg>
