<svg xmlns="http://www.w3.org/2000/svg" width="54" height="57" viewBox="0 0 54 57">
  <metadata><?xpacket begin="﻿" id="W5M0MpCehiHzreSzNTczkc9d"?>
<x:xmpmeta xmlns:x="adobe:ns:meta/" x:xmptk="Adobe XMP Core 5.6-c138 79.159824, 2016/09/14-01:09:01        ">
   <rdf:RDF xmlns:rdf="http://www.w3.org/1999/02/22-rdf-syntax-ns#">
      <rdf:Description rdf:about=""/>
   </rdf:RDF>
</x:xmpmeta>
                                                                                                    
                                                                                                    
                                                                                                    
                                                                                                    
                                                                                                    
                                                                                                    
                                                                                                    
                                                                                                    
                                                                                                    
                                                                                                    
                                                                                                    
                                                                                                    
                                                                                                    
                                                                                                    
                                                                                                    
                                                                                                    
                                                                                                    
                                                                                                    
                                                                                                    
                                                                                                    
                           
<?xpacket end="w"?></metadata>
<defs>
    <style>
      .cls-1 {
        fill: #fff;
        fill-rule: evenodd;
      }
    </style>
  </defs>
  <path id="photo" class="cls-1" d="M1017.79,778H978.2a7.162,7.162,0,0,0-7.2,7.123v42.743a7.162,7.162,0,0,0,7.2,7.125h39.592a7.161,7.161,0,0,0,7.2-7.125V785.121A7.16,7.16,0,0,0,1017.79,778Zm3.6,49.866a3.591,3.591,0,0,1-3.6,3.563H978.2a3.587,3.587,0,0,1-3.6-3.563V785.121a3.585,3.585,0,0,1,3.6-3.561h39.592a3.588,3.588,0,0,1,3.6,3.561v42.743Zm-5.4-42.743H980a1.79,1.79,0,0,0-1.8,1.782V818.96a1.789,1.789,0,0,0,1.8,1.781h35.992a1.792,1.792,0,0,0,1.8-1.781V786.9A1.793,1.793,0,0,0,1015.99,785.121Zm0,1.782v24.7l-5.85-6.289a1.813,1.813,0,0,0-2.7,0l-4.68,5.256-14.214-15.942a1.812,1.812,0,0,0-2.7,0L980,801.3V786.9h35.992ZM980,804l7.2-8.192,14.514,16.284,1.05,1.172,4.97,5.7H980V804Zm30.132,14.961-6.17-7.044,4.83-5.423,7.2,7.8v4.668h-5.86Zm-4.94-17.809a5.344,5.344,0,1,0-5.4-5.344A5.373,5.373,0,0,0,1005.19,801.151Zm0-8.906a3.562,3.562,0,1,1-3.6,3.562A3.582,3.582,0,0,1,1005.19,792.245Z" transform="translate(-971 -778)"/>
</svg>
