<svg xmlns="http://www.w3.org/2000/svg" width="56.5" height="56.5" viewBox="0 0 56.5 56.5">
  <metadata><?xpacket begin="﻿" id="W5M0MpCehiHzreSzNTczkc9d"?>
<x:xmpmeta xmlns:x="adobe:ns:meta/" x:xmptk="Adobe XMP Core 5.6-c138 79.159824, 2016/09/14-01:09:01        ">
   <rdf:RDF xmlns:rdf="http://www.w3.org/1999/02/22-rdf-syntax-ns#">
      <rdf:Description rdf:about=""/>
   </rdf:RDF>
</x:xmpmeta>
                                                                                                    
                                                                                                    
                                                                                                    
                                                                                                    
                                                                                                    
                                                                                                    
                                                                                                    
                                                                                                    
                                                                                                    
                                                                                                    
                                                                                                    
                                                                                                    
                                                                                                    
                                                                                                    
                                                                                                    
                                                                                                    
                                                                                                    
                                                                                                    
                                                                                                    
                                                                                                    
                           
<?xpacket end="w"?></metadata>
<defs>
    <style>
      .cls-1 {
        fill: #fff;
        fill-rule: evenodd;
      }
    </style>
  </defs>
  <path id="settings" class="cls-1" d="M538.66,800.384l-5.412-1.084a21.446,21.446,0,0,0-.947-2.276l3.064-4.6a3.53,3.53,0,0,0-.441-4.455l-3.4-3.4a3.533,3.533,0,0,0-4.456-.443l-4.6,3.064a21.317,21.317,0,0,0-2.278-.946l-1.083-5.413A3.53,3.53,0,0,0,515.652,778h-4.8a3.53,3.53,0,0,0-3.462,2.839l-1.085,5.413a21.319,21.319,0,0,0-2.276.946l-4.6-3.064a3.533,3.533,0,0,0-4.456.443l-3.4,3.4a3.529,3.529,0,0,0-.441,4.455l3.064,4.6a21.237,21.237,0,0,0-.947,2.278l-5.412,1.082a3.531,3.531,0,0,0-2.84,3.463v4.8a3.53,3.53,0,0,0,2.84,3.462l5.412,1.085a21.621,21.621,0,0,0,.947,2.276l-3.064,4.6a3.529,3.529,0,0,0,.441,4.455l3.4,3.4a3.532,3.532,0,0,0,4.456.441l4.6-3.063a21.311,21.311,0,0,0,2.278.945l1.083,5.413a3.529,3.529,0,0,0,3.462,2.839h4.8a3.529,3.529,0,0,0,3.462-2.839l1.085-5.413a21.61,21.61,0,0,0,2.276-.945l4.6,3.063a3.532,3.532,0,0,0,4.456-.441l3.4-3.4a3.53,3.53,0,0,0,.441-4.455l-3.064-4.6a21.409,21.409,0,0,0,.947-2.278l5.412-1.083a3.53,3.53,0,0,0,2.84-3.462v-4.8A3.531,3.531,0,0,0,538.66,800.384Zm-6.105,9.35a3.526,3.526,0,0,0-2.642,2.3,17.524,17.524,0,0,1-.79,1.9,3.528,3.528,0,0,0,.24,3.5l3.064,4.6-3.4,3.4-4.6-3.064a3.529,3.529,0,0,0-3.5-.242,17.773,17.773,0,0,1-1.9.792,3.529,3.529,0,0,0-2.3,2.641l-1.084,5.414h-4.8l-1.083-5.414a3.529,3.529,0,0,0-2.3-2.641,17.883,17.883,0,0,1-1.9-.79,3.527,3.527,0,0,0-3.5.24l-4.6,3.064-3.4-3.4,3.064-4.6a3.536,3.536,0,0,0,.241-3.5,17.751,17.751,0,0,1-.791-1.9,3.531,3.531,0,0,0-2.642-2.3l-5.412-1.084,0-4.8,5.414-1.084a3.528,3.528,0,0,0,2.642-2.3,17.31,17.31,0,0,1,.79-1.9,3.529,3.529,0,0,0-.24-3.5l-3.064-4.6,3.4-3.4,4.6,3.064a3.534,3.534,0,0,0,3.5.241,17.48,17.48,0,0,1,1.9-.791,3.531,3.531,0,0,0,2.3-2.642l1.084-5.413h4.8l1.083,5.414a3.528,3.528,0,0,0,2.3,2.642,17.807,17.807,0,0,1,1.9.789,3.528,3.528,0,0,0,3.5-.239l4.6-3.064,3.4,3.4-3.064,4.6a3.536,3.536,0,0,0-.241,3.5,17.959,17.959,0,0,1,.791,1.9,3.53,3.53,0,0,0,2.642,2.3l5.412,1.084,0,4.8Zm-19.3-15.845a12.36,12.36,0,1,0,12.359,12.36A12.361,12.361,0,0,0,513.25,793.889Zm0,23.175a10.815,10.815,0,1,1,10.814-10.815A10.817,10.817,0,0,1,513.25,817.064Zm0-17.878a7.063,7.063,0,1,0,7.062,7.063A7.061,7.061,0,0,0,513.25,799.186Zm0,12.359a5.3,5.3,0,1,1,5.3-5.3A5.3,5.3,0,0,1,513.25,811.545Z" transform="translate(-485 -778)"/>
</svg>
