<svg 
 xmlns="http://www.w3.org/2000/svg"
 xmlns:xlink="http://www.w3.org/1999/xlink"
 width="63px" height="66px">
<path fill-rule="evenodd"  stroke-width="4px" stroke="rgb(255, 255, 255)" fill-opacity="0.102" fill="rgb(255, 255, 255)"
 d="M25.155,58.117 C20.927,55.641 16.655,53.237 12.341,50.905 C8.027,48.574 5.913,45.004 5.998,40.196 C6.084,35.389 6.084,30.581 5.998,25.774 C5.913,20.966 8.027,17.397 12.341,15.065 C16.655,12.733 20.927,10.329 25.155,7.853 C29.384,5.377 33.612,5.377 37.841,7.853 C42.070,10.329 46.341,12.733 50.655,15.065 C54.969,17.397 57.083,20.966 56.998,25.774 C56.912,30.581 56.912,35.389 56.998,40.196 C57.083,45.004 54.969,48.574 50.655,50.905 C46.341,53.237 42.070,55.641 37.841,58.117 C33.612,60.593 29.384,60.593 25.155,58.117 Z"/>
</svg>