<svg 
 xmlns="http://www.w3.org/2000/svg"
 xmlns:xlink="http://www.w3.org/1999/xlink"
 width="94px" height="101px">
<path fill-rule="evenodd"  stroke-width="4px" stroke="rgb(255, 255, 255)" fill-opacity="0.102" fill="rgb(255, 255, 255)"
 d="M36.851,91.148 C30.159,87.128 23.399,83.224 16.571,79.439 C9.744,75.653 6.398,69.857 6.533,62.052 C6.668,54.246 6.668,46.441 6.533,38.635 C6.398,30.829 9.744,25.033 16.571,21.248 C23.399,17.461 30.159,13.559 36.851,9.540 C43.544,5.519 50.236,5.519 56.928,9.540 C63.620,13.559 70.380,17.461 77.208,21.248 C84.035,25.033 87.382,30.829 87.246,38.635 C87.111,46.441 87.111,54.246 87.246,62.052 C87.382,69.857 84.035,75.653 77.208,79.439 C70.380,83.224 63.620,87.128 56.928,91.148 C50.236,95.168 43.544,95.168 36.851,91.148 Z"/>
</svg>