<svg xmlns="http://www.w3.org/2000/svg" width="56" height="56" viewBox="0 0 56 56">
  <metadata><?xpacket begin="﻿" id="W5M0MpCehiHzreSzNTczkc9d"?>
<x:xmpmeta xmlns:x="adobe:ns:meta/" x:xmptk="Adobe XMP Core 5.6-c138 79.159824, 2016/09/14-01:09:01        ">
   <rdf:RDF xmlns:rdf="http://www.w3.org/1999/02/22-rdf-syntax-ns#">
      <rdf:Description rdf:about=""/>
   </rdf:RDF>
</x:xmpmeta>
                                                                                                    
                                                                                                    
                                                                                                    
                                                                                                    
                                                                                                    
                                                                                                    
                                                                                                    
                                                                                                    
                                                                                                    
                                                                                                    
                                                                                                    
                                                                                                    
                                                                                                    
                                                                                                    
                                                                                                    
                                                                                                    
                                                                                                    
                                                                                                    
                                                                                                    
                                                                                                    
                           
<?xpacket end="w"?></metadata>
<defs>
    <style>
      .cls-1 {
        fill: #fff;
        fill-rule: evenodd;
      }
    </style>
  </defs>
  <path id="user" class="cls-1" d="M1319.44,824.586a51.068,51.068,0,0,0-16.23-6.471,39.612,39.612,0,0,0,6.67-14.3c1.32-5.473.81-16.184-4.45-22.857a15.938,15.938,0,0,0-24.86,0c-5.26,6.673-5.77,17.384-4.45,22.857a39.612,39.612,0,0,0,6.67,14.3,51.068,51.068,0,0,0-16.23,6.471A3.5,3.5,0,0,0,1268.5,831h49A3.5,3.5,0,0,0,1319.44,824.586Zm-18.97-8.64-0.58.726c-4.17,4.794-9.61,4.794-13.78,0l-0.58-.726a29.936,29.936,0,0,1-6.25-22.137c0.96-7.489,5.25-15.31,13.72-15.31s12.76,7.821,13.72,15.31A29.975,29.975,0,0,1,1300.47,815.946ZM1268.5,827.5a47.617,47.617,0,0,1,15.03-5.962l4.34-.942a8.783,8.783,0,0,0,10.26,0l4.34,0.942a47.68,47.68,0,0,1,15.03,5.962h-49Z" transform="translate(-1265 -775)"/>
</svg>
