<svg xmlns="http://www.w3.org/2000/svg" width="762" height="762" viewBox="0 0 762 762">
    <g fill="#000" fill-rule="nonzero" opacity=".2">
        <path d="M760.967 380.764c0 209.98-170.223 380.203-380.203 380.203C170.784 760.967.562 590.744.562 380.764.562 170.784 170.784.562 380.764.562c195.677 0 356.832 147.825 377.872 337.893h.568C738.157 148.076 576.75 0 380.764 0 170.474 0 0 170.473 0 380.764c0 210.289 170.473 380.764 380.764 380.764 210.289 0 380.764-170.475 380.764-380.764v-.654.653h-.561z"/>
        <path d="M676.148 381.044c0 162.98-132.124 295.098-295.103 295.098s-295.1-132.119-295.1-295.098c0-162.98 132.121-295.1 295.1-295.1 148.638 0 271.608 109.893 292.098 252.864h.566C653.22 195.526 529.993 85.383 381.045 85.383c-163.288 0-295.66 132.372-295.66 295.661 0 163.29 132.372 295.659 295.66 295.659 163.29 0 295.663-132.37 295.663-295.659h-.56z"/>
        <path d="M632.951 380.264c0 139.556-113.256 252.688-252.966 252.688-132.597 0-241.365-101.902-252.1-231.584h-.562c10.736 129.992 119.755 232.145 252.662 232.145 140.02 0 253.527-113.383 253.527-253.249 0-139.866-113.507-253.249-253.527-253.249-132.906 0-241.926 102.154-252.662 232.145h.563c10.734-129.682 119.502-231.585 252.099-231.585 139.71 0 252.966 113.133 252.966 252.69z"/>
        <path d="M425.806 545.365c-90.2 24.17-182.913-29.36-207.082-119.558-24.169-90.2 29.36-182.913 119.559-207.082 83.262-22.31 168.666 21.585 200.32 99.416l.55-.147c-31.74-78.13-117.453-122.204-201.016-99.813-90.5 24.25-144.206 117.272-119.957 207.771 24.25 90.5 117.272 144.208 207.772 119.957 83.562-22.39 135.757-103.415 124.177-186.949l-.548.147c11.502 83.231-40.513 163.948-123.775 186.258z"/>
        <path d="M589.323 380.483c0 116.442-94.145 210.838-210.278 210.838-116.134 0-210.278-94.396-210.278-210.838 0-109.307 82.96-199.187 189.194-209.79v-.564c-106.543 10.606-189.754 100.736-189.754 210.354 0 116.752 94.395 211.4 210.838 211.4 116.442 0 210.837-94.648 210.837-211.4 0-109.617-83.21-199.748-189.753-210.354v.563c106.233 10.604 189.194 100.484 189.194 209.791z"/>
        <path d="M467.711 705.86c-179.668 48.146-364.343-58.478-412.485-238.147C7.084 288.046 113.707 103.37 293.374 55.228c172.828-46.31 350.292 50.587 406.402 217.95l.543-.144C644.125 105.371 466.356 8.298 293.229 54.687 113.264 102.91 6.464 287.892 54.686 467.857c48.222 179.968 233.205 286.764 413.171 238.546 173.123-46.388 278.543-219.341 243.377-392.637l-.543.145c35.088 172.997-70.153 345.64-242.979 391.95z"/>
    </g>
</svg>
