<svg xmlns="http://www.w3.org/2000/svg" width="11" height="11" viewBox="0 0 11 11">
  <metadata><?xpacket begin="﻿" id="W5M0MpCehiHzreSzNTczkc9d"?>
<x:xmpmeta xmlns:x="adobe:ns:meta/" x:xmptk="Adobe XMP Core 5.6-c138 79.159824, 2016/09/14-01:09:01        ">
   <rdf:RDF xmlns:rdf="http://www.w3.org/1999/02/22-rdf-syntax-ns#">
      <rdf:Description rdf:about=""/>
   </rdf:RDF>
</x:xmpmeta>
                                                                                                    
                                                                                                    
                                                                                                    
                                                                                                    
                                                                                                    
                                                                                                    
                                                                                                    
                                                                                                    
                                                                                                    
                                                                                                    
                                                                                                    
                                                                                                    
                                                                                                    
                                                                                                    
                                                                                                    
                                                                                                    
                                                                                                    
                                                                                                    
                                                                                                    
                                                                                                    
                           
<?xpacket end="w"?></metadata>
<defs>
    <style>
      .cls-1 {
        fill: #fc486a;
        fill-rule: evenodd;
      }
    </style>
  </defs>
  <path id="fa-times-circle" class="cls-1" d="M1459.43,334.46l-0.64.645a0.468,0.468,0,0,1-.66,0l-1.29-1.3-1.3,1.3a0.44,0.44,0,0,1-.32.136,0.446,0.446,0,0,1-.33-0.136l-0.65-.645a0.447,0.447,0,0,1-.13-0.329,0.44,0.44,0,0,1,.13-0.323l1.3-1.3-1.3-1.3a0.474,0.474,0,0,1,0-.652l0.65-.645a0.447,0.447,0,0,1,.33-0.137,0.441,0.441,0,0,1,.32.137l1.3,1.3,1.29-1.3a0.466,0.466,0,0,1,.66,0l0.64,0.645a0.45,0.45,0,0,1,0,.652l-1.3,1.3,1.3,1.3a0.45,0.45,0,0,1,.14.323,0.456,0.456,0,0,1-.14.329h0Zm0.17-6.713a5.363,5.363,0,0,0-2.76-.738,5.5,5.5,0,1,0,0,11,5.363,5.363,0,0,0,2.76-.738,5.473,5.473,0,0,0,2-2,5.523,5.523,0,0,0,0-5.523A5.473,5.473,0,0,0,1459.6,327.747Z" transform="translate(-1451.34 -327)"/>
</svg>
