<svg xmlns="http://www.w3.org/2000/svg" width="245" height="14"><path fill-rule="evenodd" stroke="#123a8c" stroke-width="2" fill="none" d="M1 8.945c4.559-1.199 8.947-3.474 11.977-4.791 1.827-.893 3.889-1.714 6.307-2.212.819-.168 1.63-.315 2.431-.441 1.558-.286 3.235-.48 4.943-.488 3.621-.128 6.842.32 9.298 1.468 4.033 1.885 11.024 5.926 14.52 6.464 3.496.539 7.35 1.886 14.52 0 5.362-1.409 10.487-4.309 13.445-5.387 2.185-.796 7.307-2.621 12.653-2.542 3.661-.14 6.918.306 9.396 1.465 4.034 1.885 11.025 5.926 14.52 6.464 3.496.539 7.35 1.886 14.521 0 4.559-1.199 8.947-3.474 11.977-4.791 1.827-.893 3.889-1.714 6.307-2.212.818-.168 1.63-.315 2.43-.441 1.558-.286 3.236-.48 4.944-.488 3.621-.128 6.842.32 9.298 1.468 4.033 1.885 11.024 5.926 14.52 6.464 3.496.539 7.35 1.886 14.52 0 3.314-.871 6.537-2.311 9.214-3.539 2.605-1.332 5.993-2.831 9.071-3.464a53.103 53.103 0 0 1 2.43-.441c1.546-.283 3.209-.477 4.903-.487 3.637-.133 6.873.314 9.338 1.467 4.033 1.885 11.025 5.926 14.52 6.464"/></svg>