<svg width="33" height="46" viewBox="0 0 33 46" fill="none" xmlns="http://www.w3.org/2000/svg">
<g id="fire">
<g id="Group">
<g id="Group_2">
<path id="Vector" d="M29.1731 22.8905C28.9538 25.9516 27.1369 28.1007 25.0392 29.0115C22.815 29.9769 20.5668 29.4444 19.4443 27.6859C17.6066 24.8066 18.8694 22.8027 20.0905 20.8647C21.4751 18.6672 23.0446 16.1764 21.5393 11.3326C20.3509 7.50862 18.0236 4.2982 14.6218 1.7905C13.5613 1.00885 12.5555 0.42098 11.7393 0C12.8793 2.66596 14.3618 7.62694 12.8132 13.108C11.8311 16.5846 9.23544 19.2191 6.72518 21.767C3.41896 25.1229 -3.87813e-08 28.593 -3.87813e-08 34.1374C-3.87813e-08 38.4386 1.5598 41.8651 4.63592 44.3215C6.96536 46.1817 9.34236 46.9061 9.36606 46.9118H15.038L14.9193 46.9096C14.8974 46.8932 12.7365 45.2546 12.6993 43.3752C12.682 42.4968 13.1618 41.6542 14.1254 40.8708C15.5728 39.6941 16.3684 38.4271 16.5576 36.9975C16.6733 36.1233 16.5563 35.199 16.2007 34.2013C18.6014 35.1686 21.0847 37.2806 21.9262 39.9024C22.682 42.2569 21.9829 44.6784 19.9064 46.9118H26.1138C30.1799 43.8514 32.4689 40.1838 32.9176 36.011C33.4897 30.6906 30.958 25.6796 29.1731 22.8905Z" transform="scale(0.978727)" fill="#FFAC2E"/>
</g>
</g>
<g id="Group_3">
<g id="Group_4">
<path id="Vector_2" d="M3.87813e-07 1.34468e-07L4.7866 0.0882168C4.81437 0.0589336 4.84097 0.0293751 4.86829 1.34468e-07H3.87813e-07Z" transform="translate(14.7191 45.9137) scale(0.978727)" fill="#FFAC2E"/>
</g>
</g>
</g>
</svg>
