<svg width="180" height="128" viewBox="0 0 180 128" fill="none" xmlns="http://www.w3.org/2000/svg">
<g id="Group">
<path id="Vector" d="M323.072 0H16.8141C7.52795 0 0 7.48426 0 16.7166V53.7318C0 62.9641 7.52795 70.4484 16.8141 70.4484H323.072C332.358 70.4484 339.886 62.9641 339.886 53.7318V16.7166C339.886 7.48426 332.358 0 323.072 0Z" transform="matrix(-0.111753 -0.19744 -0.196322 0.113705 180.798 65.7124)" fill="#FFAC2E"/>
<path id="Vector_2" d="M323.125 0H16.8169C7.5292 0 0 7.483 0 16.7138V53.7228C0 62.9535 7.5292 70.4365 16.8169 70.4365H323.125C332.413 70.4365 339.942 62.9535 339.942 53.7228V16.7138C339.942 7.483 332.413 0 323.125 0Z" transform="matrix(0.108404 -0.199298 0.198236 0.110335 -1.35305 66.4415)" fill="#FFAC2E"/>
<path id="Vector_3" fill-rule="evenodd" clip-rule="evenodd" d="M112.936 62.6286L101.03 71.0593L59.9535 41.5516C59.9535 41.5516 48.0472 29.5077 34.9503 40.3472C21.2581 51.1868 6.37529 54.1978 0.422161 43.9604C0.422161 43.9604 -1.95909 41.5516 4.58935 37.3363C10.5425 33.1209 55.1909 1.2044 55.1909 1.2044L77.8128 0L112.936 62.6286Z" transform="translate(47.6834 11.7138) scale(0.995349)" fill="#FFAC2E"/>
<path id="Vector_4" fill-rule="evenodd" clip-rule="evenodd" d="M67.2704 6.02198L29.1703 33.7231C29.1703 33.7231 16.6688 45.1648 36.3141 54.1978C36.3141 54.1978 47.0297 60.822 72.6282 42.1538C72.6282 42.1538 77.3907 36.1319 85.1297 43.9604L125.016 72.8659C125.016 72.8659 132.755 82.5011 118.467 83.7055L94.6547 65.6395C94.6547 65.6395 88.7016 63.2307 91.0829 69.8549L111.324 84.3077C111.324 84.3077 116.086 95.7494 102.989 93.9428L78.5813 76.4791C78.5813 76.4791 73.2235 75.2747 76.2001 79.4901L95.8454 95.1472C95.8454 95.1472 101.799 106.589 88.1063 104.782L64.2938 87.9209C64.2938 87.9209 58.3407 84.9099 60.7219 91.534L81.5579 106.589C81.5579 106.589 85.7251 115.622 73.8188 116.224L0 62.0264L34.5281 0H55.3641C55.3641 0 62.5079 0 67.2704 6.02198Z" transform="translate(17.8852 12.3165) scale(0.995349)" fill="#FFAC2E"/>
</g>
</svg>
