<svg width="29" height="29" viewBox="0 0 29 29" fill="none" xmlns="http://www.w3.org/2000/svg">
<g id="instagram-logo (1)">
<ellipse id="Ellipse" cx="14.5521" cy="14.5" rx="14.5521" ry="14.5" transform="scale(0.996421)" fill="white"/>
<g id="Group">
<path id="Vector" d="M11.494 0H4.38083C1.96524 0 0 1.9583 0 4.36525V11.4529C0 13.86 1.96524 15.8182 4.38083 15.8182H11.494C13.9098 15.8182 15.875 13.8599 15.875 11.4529V4.36525C15.8751 1.9583 13.9098 0 11.494 0ZM14.4666 11.4529C14.4666 13.0861 13.1331 14.4147 11.4941 14.4147H4.38083C2.74189 14.4148 1.40851 13.0861 1.40851 11.4529V4.36525C1.40851 2.73217 2.74189 1.40347 4.38083 1.40347H11.494C13.133 1.40347 14.4665 2.73217 14.4665 4.36525V11.4529H14.4666Z" transform="translate(6.59156 6.56723) scale(0.996421)" fill="#555555"/>
<path id="Vector_2" d="M4.09059 1.14214e-07C1.835 1.14214e-07 -1.40415e-07 1.82843 -1.40415e-07 4.07594C-1.40415e-07 6.32336 1.835 8.1517 4.09059 8.1517C6.34617 8.1517 8.18117 6.32336 8.18117 4.07594C8.18117 1.82843 6.34617 1.14214e-07 4.09059 1.14214e-07ZM4.09059 6.74814C2.61175 6.74814 1.40851 5.5494 1.40851 4.07585C1.40851 2.60221 2.61165 1.40337 4.09059 1.40337C5.56952 1.40337 6.77267 2.60221 6.77267 4.07585C6.77267 5.5494 5.56942 6.74814 4.09059 6.74814Z" transform="translate(10.4235 10.387) scale(0.996421)" fill="#555555"/>
<path id="Vector_3" d="M1.03291 -5.13964e-08C0.761533 -5.13964e-08 0.494949 0.10947 0.303299 0.301277C0.110709 0.492149 -2.23518e-07 0.757871 -2.23518e-07 1.02921C-2.23518e-07 1.2997 0.110803 1.56533 0.303299 1.75714C0.494856 1.94801 0.761533 2.05842 1.03291 2.05842C1.30522 2.05842 1.57096 1.94801 1.76345 1.75714C1.95595 1.56533 2.06581 1.29961 2.06581 1.02921C2.06581 0.757871 1.95595 0.492149 1.76345 0.301277C1.57189 0.10947 1.30522 -5.13964e-08 1.03291 -5.13964e-08Z" transform="translate(17.7176 9.20132) scale(0.996421)" fill="#555555"/>
</g>
</g>
</svg>
