<svg width="60" height="59" viewBox="0 0 60 59" fill="none" xmlns="http://www.w3.org/2000/svg">
<g id="noun_1538751_cc">
<g id="Layer 2">
<path id="Vector" d="M30 0C24.0666 0 18.2664 1.75947 13.3329 5.05591C8.39943 8.35235 4.55426 13.0377 2.28363 18.5195C0.0129988 24.0013 -0.581102 30.0333 0.576455 35.8527C1.73401 41.6721 4.59123 47.0176 8.78681 51.2132C12.9824 55.4088 18.3279 58.266 24.1473 59.4235C29.9667 60.5811 35.9987 59.987 41.4805 57.7164C46.9623 55.4457 51.6476 51.6006 54.9441 46.6671C58.2405 41.7336 60 35.9334 60 30C60 22.0435 56.8393 14.4129 51.2132 8.78679C45.5871 3.1607 37.9565 0 30 0ZM39 20C39.5933 20 40.1734 20.1759 40.6667 20.5056C41.1601 20.8352 41.5446 21.3038 41.7716 21.8519C41.9987 22.4001 42.0581 23.0033 41.9424 23.5853C41.8266 24.1672 41.5409 24.7018 41.1213 25.1213C40.7018 25.5409 40.1672 25.8266 39.5853 25.9424C39.0033 26.0581 38.4001 25.9987 37.852 25.7716C37.3038 25.5446 36.8352 25.1601 36.5056 24.6667C36.176 24.1734 36 23.5933 36 23C36 22.2043 36.3161 21.4413 36.8787 20.8787C37.4413 20.3161 38.2044 20 39 20ZM21 20C21.5934 20 22.1734 20.1759 22.6667 20.5056C23.1601 20.8352 23.5446 21.3038 23.7716 21.8519C23.9987 22.4001 24.0581 23.0033 23.9424 23.5853C23.8266 24.1672 23.5409 24.7018 23.1213 25.1213C22.7018 25.5409 22.1672 25.8266 21.5853 25.9424C21.0033 26.0581 20.4001 25.9987 19.852 25.7716C19.3038 25.5446 18.8352 25.1601 18.5056 24.6667C18.176 24.1734 18 23.5933 18 23C18 22.2043 18.3161 21.4413 18.8787 20.8787C19.4413 20.3161 20.2044 20 21 20ZM46 45.66C45.7809 45.8064 45.535 45.9081 45.2765 45.9593C45.018 46.0104 44.7519 46.0099 44.4936 45.9579C44.2353 45.9058 43.9897 45.8033 43.7712 45.656C43.5526 45.5088 43.3653 45.3198 43.22 45.1C41.7579 42.9137 39.7794 41.1215 37.4596 39.8821C35.1397 38.6428 32.5502 37.9944 29.92 37.9944C27.2899 37.9944 24.7003 38.6428 22.3804 39.8821C20.0606 41.1215 18.0821 42.9137 16.62 45.1C16.4816 45.3341 16.2969 45.5376 16.0772 45.6979C15.8574 45.8582 15.6073 45.972 15.3421 46.0323C15.0769 46.0927 14.8022 46.0983 14.5348 46.0489C14.2673 45.9994 14.0127 45.8959 13.7867 45.7447C13.5606 45.5936 13.3677 45.3978 13.2198 45.1696C13.0719 44.9413 12.9722 44.6853 12.9266 44.4171C12.8811 44.149 12.8907 43.8744 12.9549 43.6101C13.0191 43.3458 13.1365 43.0974 13.3 42.88C15.128 40.1492 17.6007 37.9109 20.4995 36.363C23.3983 34.8152 26.6338 34.0054 29.92 34.0054C33.2062 34.0054 36.4417 34.8152 39.3405 36.363C42.2393 37.9109 44.712 40.1492 46.54 42.88C46.6874 43.0979 46.7904 43.3427 46.843 43.6004C46.8957 43.8582 46.8969 44.1238 46.8468 44.382C46.7966 44.6403 46.696 44.8861 46.5507 45.1054C46.4054 45.3247 46.2183 45.5131 46 45.66Z" transform="scale(0.983333)" fill="#FFAC2E"/>
</g>
</g>
</svg>
