<svg width="24" height="19" viewBox="0 0 24 19" fill="none" xmlns="http://www.w3.org/2000/svg">
<g id="noun_39648_cc">
<path id="Vector" d="M5.11923 2.42744C5.11923 1.08897 3.97085 -5.18929e-07 2.5598 -5.18929e-07C1.14838 -5.18929e-07 -1.11646e-08 1.08897 -1.11646e-08 2.42744C-1.11646e-08 3.76627 1.14838 4.85558 2.5598 4.85558C3.97085 4.85558 5.11923 3.76627 5.11923 2.42744ZM1.04155 2.42744C1.04155 1.63345 1.72239 0.987635 2.5598 0.987635C3.39685 0.987635 4.07768 1.63345 4.07768 2.42744C4.07768 3.22179 3.39685 3.8676 2.5598 3.8676C1.72239 3.8676 1.04155 3.22179 1.04155 2.42744Z" transform="translate(1.82227 12.2217)" fill="white"/>
<path id="Vector_2" d="M8.76303 14.6493C8.76303 14.4377 8.74071 14.2305 8.70852 14.0264L9.85543 13.1467L9.87958 13.1748C9.88287 13.1724 9.93994 13.1269 10.0329 13.0523C10.9972 13.9775 12.0252 14.8673 13.0983 15.7734C15.6859 17.9589 17.9724 19 19.8934 19C19.8934 19 19.8934 19 19.8941 19C21.2617 19 22.0629 18.501 22.4188 18.1637C23.2361 17.3888 23.5972 17.0903 23.6122 17.075L24 16.6867L14.6125 9.56646L24 2.44618L23.6122 2.05647C23.5972 2.04155 23.2365 1.67891 22.4188 0.903655C22.0625 0.566346 21.2617 -1.40323e-07 19.8934 -1.40323e-07C17.9724 -1.40323e-07 15.6862 1.1084 13.0983 3.29397C12.1749 4.07408 11.284 4.8705 10.4368 5.6697L10.4298 5.66311C10.3131 5.77589 10.1942 5.89284 10.0746 6.01187C10.0523 6.03304 10.0299 6.05386 10.008 6.07468L8.71108 5.09052C8.74181 4.89237 8.76303 4.69144 8.76303 4.48496C8.76303 2.1932 6.79809 0.32898 4.3817 0.32898C1.96567 0.32898 8.37347e-09 2.19355 8.37347e-09 4.48496C8.37347e-09 6.77637 1.96604 8.64129 4.38206 8.64129C4.86534 8.64129 5.32959 8.56355 5.76458 8.42578C5.95518 8.6746 6.25847 9.05806 6.69199 9.56646C6.46956 9.81007 6.33383 9.96033 6.32834 9.96658L6.34554 9.9808C6.09128 10.289 5.89848 10.5336 5.76421 10.7089C5.32886 10.5711 4.86497 10.4934 4.38206 10.4934C1.96604 10.4934 0.000365824 12.3579 0.000365824 14.6493C0.000365824 16.9411 1.96604 18.8057 4.38206 18.8057C6.79809 18.8053 8.76303 16.9411 8.76303 14.6493ZM22.462 16.7551C22.2736 16.9373 22.016 17.1222 21.6828 17.4387C21.4413 17.6681 20.8867 17.9589 19.8941 17.9589C19.8934 17.9589 19.8934 17.9589 19.8934 17.9589C18.7531 17.9589 16.7691 17.5248 13.7904 15.0092C12.7511 14.1316 11.7574 13.2963 10.8231 12.4124C11.5625 11.8318 12.6475 10.9962 13.7626 10.1623L22.462 16.7551ZM10.7675 6.75416C11.7201 5.83871 12.7328 4.92395 13.7908 4.03036C16.7699 1.51477 18.7538 0.9859 19.8938 0.9859C20.887 0.9859 21.4413 1.36902 21.6831 1.5984C22.0164 1.91489 22.274 2.15885 22.4624 2.34138L13.2259 9.3395L13.2135 9.32354C11.801 10.3781 10.4199 11.4605 9.70763 12.0241L8.48242 12.9531C8.37121 12.8011 8.23073 12.6158 8.06756 12.411C7.7983 12.0133 7.4599 11.6635 7.06918 11.3738C6.94955 11.2821 6.83284 11.1996 6.72711 11.1347C6.91296 10.8976 7.18003 10.5673 7.52282 10.1661C8.1839 9.44257 9.54886 7.96736 10.7675 6.75416ZM8.48242 6.18191L9.29642 6.79893C8.60718 7.50686 7.92598 8.23214 7.38856 8.81098C7.10978 8.48096 6.88808 8.20577 6.72711 8.00068C6.83248 7.93544 6.94918 7.85284 7.06918 7.76123C7.4599 7.47146 7.7983 7.12131 8.06756 6.72397C8.23036 6.51922 8.37121 6.33356 8.48242 6.18191ZM6.41834 6.99083C6.20469 7.14769 5.97165 7.28094 5.72178 7.3854L5.2535 7.54052C4.97473 7.61235 4.68388 7.65365 4.38206 7.65365C2.54004 7.65365 1.04192 6.23223 1.04192 4.48531C1.04192 2.73838 2.54004 1.31696 4.38206 1.31696C6.22408 1.31696 7.7222 2.73838 7.7222 4.48531C7.7222 5.09919 7.53416 5.67109 7.21368 6.15728C7.12369 6.27041 7.02857 6.38735 6.92247 6.51228C6.75236 6.71321 6.57858 6.86764 6.41834 6.99083ZM1.04192 14.6493C1.04192 12.9028 2.54004 11.481 4.38206 11.481C4.68827 11.481 4.98424 11.5237 5.26704 11.5976L5.70751 11.7427C5.98957 11.8586 6.25115 12.0102 6.48639 12.1921C6.62724 12.3062 6.77614 12.4454 6.92247 12.6185C7.02235 12.7369 7.11344 12.8483 7.20051 12.9559C7.52867 13.4465 7.7222 14.0261 7.7222 14.649C7.7222 16.3963 6.22408 17.8177 4.38206 17.8177C2.54004 17.8177 1.04192 16.3966 1.04192 14.6493Z" fill="white"/>
<path id="Vector_3" d="M2.5598 -1.74741e-07C1.14838 -1.74741e-07 -1.11646e-08 1.08931 -1.11646e-08 2.42779C-1.11646e-08 3.76627 1.14838 4.85558 2.5598 4.85558C3.97085 4.85558 5.11923 3.76627 5.11923 2.42779C5.11923 1.08897 3.97085 -1.74741e-07 2.5598 -1.74741e-07ZM2.5598 3.86795C1.72239 3.86795 1.04155 3.22213 1.04155 2.42779C1.04155 1.63345 1.72239 0.987635 2.5598 0.987635C3.39685 0.987635 4.07768 1.63345 4.07768 2.42779C4.07768 3.22213 3.39685 3.86795 2.5598 3.86795Z" transform="translate(1.82227 2.05664)" fill="white"/>
<path id="Vector_4" d="M0.867412 1.64629C1.34593 1.64629 1.73483 1.27705 1.73483 0.823145C1.73483 0.369235 1.34593 -6.14242e-07 0.867412 -6.14242e-07C0.388524 -6.14242e-07 1.56305e-07 0.369235 1.56305e-07 0.823145C1.56305e-07 1.27705 0.38889 1.64629 0.867412 1.64629ZM0.867412 0.329674C1.15423 0.329674 1.38837 0.551077 1.38837 0.823145C1.38837 1.09521 1.15423 1.31696 0.867412 1.31696C0.580226 1.31696 0.346818 1.09521 0.346818 0.823145C0.346818 0.551077 0.580226 0.329674 0.867412 0.329674Z" transform="translate(9.28516 8.59961)" fill="white"/>
</g>
</svg>
