<svg width="47" height="47" viewBox="0 0 47 47" fill="none" xmlns="http://www.w3.org/2000/svg">
<g id="noun_213892_cc">
<path id="Vector" d="M47 16.0452L39.6562 5.92437L28.7875 -2.35413e-08L19.3875 4.88761L8.76354 9.28151L0 23.9443L3.13333 31.4485L3.525 38.0641L9.69375 41.8162L17.3313 42.1124L25.9479 47L40.3906 42.6555L43.8667 35.5462L40.4885 28.8813L47 16.0452ZM37.7958 7.0105L44.0625 15.354L36.3271 14.021L31.4312 9.92332L30.1583 2.96218L37.7958 7.0105ZM17.9187 20.4391L19.5833 11.8487L21.15 21.0315L17.9187 20.4391ZM27.7104 2.96218L28.0531 6.02311L21.2479 6.41807L27.7104 2.96218ZM41.3208 35.0032L30.4521 35.9412L22.2271 22.5126L31.2354 30.8067L37.9427 29.2763L41.3208 35.0032Z" fill="#FFAC2E"/>
</g>
</svg>
