<svg width="183" height="147" viewBox="0 0 183 147" fill="none" xmlns="http://www.w3.org/2000/svg">
<g id="noun_39810_cc">
<path id="Vector" d="M2.82655e-05 -5.05921e-06V85.6608H22.537C25.3259 85.6608 27.5794 83.3958 27.5794 80.6045V80.6003V5.27388L2.82655e-05 -5.05921e-06Z" transform="translate(149.726 61.0069) scale(0.994572)" fill="#FFAC2E"/>
<path id="Vector_2" d="M31.6729 26.3736V10.4234C31.6729 7.43938 29.2643 5.02315 26.2852 5.02315L2.7256e-05 -1.2648e-05V26.3135L29.7171 31.778C31.8528 31.9562 31.6729 29.3597 31.6729 26.3736Z" transform="translate(151.495 31.8224) scale(0.994572)" fill="#FFAC2E"/>
<path id="Vector_3" d="M30.5709 26.5705V-2.27665e-06L5.39184 4.81178C2.41889 4.81178 0.00205909 7.22801 0.00205909 10.2121H8.5806e-06V26.1601C8.5806e-06 29.1421 -3.94329e-06 32.2795 1.60225 32.2795L30.6763 26.7238L30.5709 26.5705Z" transform="translate(0 32.0322) scale(0.994572)" fill="#FFAC2E"/>
<path id="Vector_4" d="M26.4775 5.31217e-06L1.5647e-05 5.06045V80.3931C1.5647e-05 83.1844 2.26178 85.4494 5.04453 85.4494H26.4754V5.31217e-06H26.4775Z" transform="translate(5.84311 61.2167) scale(0.994572)" fill="#FFAC2E"/>
<path id="Vector_5" d="M34.1724 2.52961e-06L0.0702756 6.5193L-9.59008e-06 33.2203L0.035133 33.2742L34.1724 26.7528V2.52961e-06Z" transform="translate(56.0631 20.6306) scale(0.994572)" fill="#FFAC2E"/>
<path id="Vector_6" d="M-2.37228e-05 2.52961e-06V26.7424L33.0498 32.8204V6.3183L-2.37228e-05 2.52961e-06Z" transform="translate(92.9594 20.6306) scale(0.994572)" fill="#FFAC2E"/>
<path id="Vector_7" d="M32.568 1.3154e-05L-7.57112e-06 6.22506V96.5733H32.568V1.3154e-05Z" transform="translate(57.658 50.152) scale(0.994572)" fill="#FFAC2E"/>
<path id="Vector_8" d="M-2.37228e-05 1.3154e-05V96.5733H31.4475V6.01368L-2.37228e-05 1.3154e-05Z" transform="translate(92.9594 50.152) scale(0.994572)" fill="#FFAC2E"/>
<path id="Vector_9" d="M7.3848 18.0768C9.0408 16.4998 10.7113 15.1674 12.3818 14.0504C18.0651 10.6167 25.2184 8.21288 33.6493 9.1599C39.6428 11.3586 43.9926 20.3915 43.6556 24.4241L51.6979 25.8312C56.2814 13.5282 46.6203 -1.39203 33.1738 0.104134C25.2432 0.988986 15.9956 6.35614 9.10906 11.1555C6.03274 12.7428 2.71245 14.7156 -7.06638e-06 16.7837L7.3848 18.0768ZM33.4819 9.09565C33.2255 9.02727 32.7913 8.91538 32.229 8.78069C32.6507 8.85321 33.0705 8.95474 33.4819 9.09565Z" transform="translate(94.5562) scale(0.994572)" fill="#FFAC2E"/>
<path id="Vector_10" d="M9.18528 24.0511C9.12946 19.8589 13.3925 11.2922 19.2082 9.15988C27.6391 8.21286 34.7924 10.6167 40.4778 14.0504C42.0325 15.0907 43.5892 16.3216 45.1336 17.7597L52.4564 16.477C49.8225 14.5208 46.6739 12.6641 43.7505 11.1555C36.864 6.35611 27.6163 0.988961 19.6836 0.104109C6.36946 -1.37755 -3.24403 13.2443 1.02519 25.4768L9.18528 24.0511ZM20.6305 8.78066C20.0682 8.91536 19.6361 9.02724 19.3777 9.09563C19.7871 8.95471 20.2067 8.85319 20.6305 8.78066Z" transform="translate(34.9149) scale(0.994572)" fill="#FFAC2E"/>
</g>
</svg>
