<svg width="51" height="48" viewBox="0 0 51 48" fill="none" xmlns="http://www.w3.org/2000/svg">
<g id="noun_814753_cc">
<g id="Group">
<path id="Vector" d="M7.28314 55.0238C1.1653 49.0544 0 44.8759 0 31.4448C0 17.1183 0.873976 14.4321 9.03109 7.56735C19.2275 -1.38669 28.5499 -2.28209 40.7856 4.2842C58.2651 13.5367 60.887 35.0264 46.3208 52.0391C34.6677 65.4701 18.3535 66.664 7.28314 55.0238Z" transform="translate(16.8846 6.17126) scale(0.0979596 -0.0979596)" fill="#FFAC2E"/>
<path id="Vector_2" d="M26.5068 85.5115C4.0747 75.6621 -5.83037 50.5908 3.49205 27.6087C18.3496 -9.10282 61.7571 -9.10282 79.8193 27.0118C98.4642 64.3203 63.7964 102.226 26.5068 85.5115Z" transform="translate(37.8311 10.0055) scale(0.0979596 -0.0979596)" fill="#FFAC2E"/>
<path id="Vector_3" d="M36.0321 143.088C21.1745 136.223 6.60825 120.703 2.23836 107.571C-2.13152 94.1394 0.199084 66.3819 6.60824 52.3539C13.0174 39.2213 38.0714 17.7316 60.2121 6.68831C86.1401 -6.14581 108.281 -0.474918 124.304 23.4025C132.17 35.3412 133.044 57.1294 126.343 77.1268C124.012 84.5885 120.808 95.9303 119.06 102.795C110.029 140.402 70.6999 159.504 36.0321 143.088Z" transform="translate(22.3432 21.9318) scale(0.0979596 -0.0979596)" fill="#FFAC2E"/>
<path id="Vector_4" d="M27.5534 93.4216C17.0657 88.6461 3.66474 73.4242 1.04281 62.9779C-1.87045 51.0391 1.62546 28.9525 7.74329 20.2969C17.9397 6.56741 29.884 1.49345 56.1033 0.299581C76.7874 -0.595823 82.3226 0.299582 93.393 5.97047C109.707 14.3276 117.573 28.3556 117.573 48.3529C117.573 66.8579 109.416 84.4676 97.7629 91.9293C90.7711 96.4063 83.1966 97.3017 62.5125 97.3017C47.9462 97.3017 32.2146 95.5109 27.5534 93.4216Z" transform="translate(7.76215 18.9672) scale(0.0979596 -0.0979596)" fill="#FFAC2E"/>
<path id="Vector_5" d="M7.75425 45.6424C-3.31612 34.599 -2.44214 17.2879 9.79352 6.84152C17.368 0.275228 21.1552 -0.918644 29.3123 0.573696C61.9408 5.64765 59.6102 53.1041 26.6904 53.1041C17.9506 53.1041 12.9981 51.3133 7.75425 45.6424Z" transform="translate(0 19.2863) scale(0.0979596 -0.0979596)" fill="#FFAC2E"/>
<path id="Vector_6" d="M9.03109 45.668C2.03928 39.6986 0 35.5201 0 26.8645C0 -1.48998 35.2504 -10.444 47.4861 14.9258C53.8952 28.3568 49.8167 42.6833 37.581 48.9511C25.928 55.2189 19.2275 54.622 9.03109 45.668Z" transform="translate(45.9932 20.1951) scale(0.0979596 -0.0979596)" fill="#FFAC2E"/>
<path id="Vector_7" d="M38.7814 125.698C23.3412 118.535 6.4443 98.8361 2.07442 83.0173C-5.20871 54.6629 7.31828 19.7421 29.7503 8.10185C74.3231 -15.7756 125.596 15.862 125.596 67.1985C125.596 88.6882 120.644 100.03 104.33 114.058C84.8109 131.369 60.3395 135.846 38.7814 125.698Z" transform="translate(4.37948 34.2629) scale(0.0979596 -0.0979596)" fill="#FFAC2E"/>
<path id="Vector_8" d="M24.3164 65.4421C-4.81616 56.488 -8.89472 15.5979 18.1985 3.95765C31.0169 -1.41478 35.3868 -1.41478 47.6224 4.55458C67.4326 14.404 72.6764 41.2661 57.8188 56.7865C53.1576 61.562 47.3311 65.4421 45.0005 65.4421C42.3786 65.4421 38.8827 66.039 36.5521 66.6359C34.5128 67.2329 28.9776 66.6359 24.3164 65.4421Z" transform="translate(36.0767 28.0969) scale(0.0979596 -0.0979596)" fill="#FFAC2E"/>
<path id="Vector_9" d="M47.544 155.824C32.1037 153.137 28.0252 151.347 18.7027 142.691C5.30176 130.752 -1.69005 111.949 0.349231 93.1453C7.04972 32.8548 13.4589 19.7222 43.1741 5.99267C68.5194 -5.94605 97.0693 0.321781 115.131 21.513C132.902 42.4058 134.65 69.5664 119.793 94.0407C115.423 101.502 108.431 113.441 104.352 120.306C100.274 127.469 95.3213 135.528 92.9907 138.214C84.5423 148.66 60.071 157.913 47.544 155.824Z" transform="translate(18.9337 40.0792) scale(0.0979596 -0.0979596)" fill="#FFAC2E"/>
<path id="Vector_10" d="M9.03109 46.0001C1.74795 39.7322 0 36.1506 0 26.5997C0 1.82681 26.8019 -8.91804 43.9901 8.69157C54.7692 19.7349 55.0605 32.2705 44.8641 44.5077C35.2504 56.4465 21.8494 57.0434 9.03109 46.0001Z" transform="translate(35.1468 36.6009) scale(0.0979596 -0.0979596)" fill="#FFAC2E"/>
<path id="Vector_11" d="M21.2668 54.76C11.3617 53.2676 0 37.4488 0 25.5101C0 1.3342 29.4239 -8.81372 46.9034 9.09436C66.4222 29.0917 49.5253 59.237 21.2668 54.76Z" transform="translate(9.17797 44.827) scale(0.0979596 -0.0979596)" fill="#FFAC2E"/>
<path id="Vector_12" d="M8.69155 45.0687C-8.78798 27.1606 1.69974 0 25.8798 0C50.0598 0 62.2954 29.8468 45.1072 46.2625C34.0369 56.7089 19.7619 56.4105 8.69155 45.0687Z" transform="translate(38.5486 48.0002) scale(0.0979596 -0.0979596)" fill="#FFAC2E"/>
</g>
</g>
</svg>
