<svg width="29" height="33" viewBox="0 0 29 33" fill="none" xmlns="http://www.w3.org/2000/svg">
<g id="noun_1726966_cc">
<g id="Group">
<path id="Vector" fill-rule="evenodd" clip-rule="evenodd" d="M21.731 10.9014C21.731 4.8759 16.8623 0 10.8457 0C4.86869 0 0 4.8759 0 10.9014C0 15.4998 8.23323 25.1327 10.8457 29.7311C13.4977 25.1327 21.731 15.4998 21.731 10.9014ZM10.8457 6.34263C12.5082 6.34263 13.854 7.69044 13.854 9.35538C13.854 11.0203 12.5082 12.3681 10.8457 12.3681C9.18321 12.3681 7.8374 11.0203 7.8374 9.35538C7.8374 7.69044 9.18321 6.34263 10.8457 6.34263Z" transform="translate(25.3592) scale(-0.999993 0.999993)" fill="#FFAC2E"/>
<path id="Vector_2" d="M28.7625 0H0.237497C0.106331 0 0 0.106488 0 0.237849V1.48505C0 1.61641 0.106331 1.7229 0.237497 1.7229H28.7625C28.8937 1.7229 29 1.61641 29 1.48505V0.237849C29 0.106488 28.8937 0 28.7625 0Z" transform="translate(28.9998 31.2771) scale(-0.999993 0.999993)" fill="#FFAC2E"/>
</g>
</g>
</svg>
