<svg width="47" height="41" viewBox="0 0 47 41" fill="none" xmlns="http://www.w3.org/2000/svg">
<g id="noun_347376_cc">
<path id="Vector" d="M32.3975 21.4821C43.6041 20.9187 45.1662 13.0302 45.1662 13.0302C44.0116 13.8753 40.7515 14.4388 37.9668 13.1006C35.1821 11.7624 32.3975 12.9597 32.3975 12.9597C38.2385 4.71903 32.1258 3.41781e-08 32.1258 3.41781e-08C32.6012 2.46516 29.7486 8.59286 24.5868 7.81809C19.425 7.04332 16.5724 9.86066 16.5724 9.86066C18.8816 5.21206 14.5348 2.3243 14.5348 2.3243C14.8744 4.50773 14.6028 7.46592 7.33545 11.4806C0.0681501 15.4953 0.000230837 24.0177 0.000230837 24.0177C-0.0676879 38.1044 14.8744 38.527 14.8744 38.527C16.6403 33.1036 21.3946 34.1601 33.2804 34.3714C45.1662 34.5827 47 22.116 47 22.116C41.9061 28.1733 32.3975 21.4821 32.3975 21.4821ZM23.1735 15.9279C21.9317 16.9188 20.5218 17.6751 19.0898 18.3223C17.2338 19.1612 15.1625 19.6051 13.4254 20.7004C9.9696 22.8794 10.3568 27.0417 12.4973 30.075C9.79456 28.6524 7.32374 26.1318 7.36579 22.7822C7.40015 20.0449 9.12357 17.629 11.4102 16.3831C12.9499 15.5442 14.5257 15.4217 16.2261 15.2869C18.0751 15.1403 19.9224 14.8366 21.6998 14.2795C23.0771 13.8478 24.541 13.2784 25.6735 12.3258C25.417 13.8332 24.2988 15.03 23.1735 15.9279Z" transform="translate(0 2.47314)" fill="#FFAC2E"/>
<path id="Vector_2" d="M8.48142 9.20059C8.96173 6.78306 7.436 4.51056 8.46171 2.06528C8.82248 1.20523 9.45844 0.410369 10.2897 0.00784523C9.06213 -0.0926543 7.70509 0.790177 6.87199 1.63752C5.19498 3.34321 5.47962 5.20808 5.12922 7.39384C4.70538 10.0378 2.33369 11.8963 -3.0591e-08 12.6858C2.6259 15.0588 7.84354 12.4112 8.48142 9.20059Z" transform="translate(35.1835)" fill="#FFAC2E"/>
</g>
</svg>
