<svg width="29" height="29" viewBox="0 0 29 29" fill="none" xmlns="http://www.w3.org/2000/svg">
<g id="tg">
<ellipse id="Ellipse" cx="14.5521" cy="14.5" rx="14.5521" ry="14.5" transform="scale(0.996421)" fill="white"/>
<g id="telegram">
<g id="XMLID 496">
<path id="XMLID 497" d="M0.2804 6.9527L3.93832 8.38493L5.35416 13.1617C5.44476 13.4676 5.80136 13.5807 6.03806 13.3777L8.07705 11.6339C8.29078 11.4512 8.59521 11.4421 8.81857 11.6122L12.4962 14.4132C12.7494 14.6063 13.1081 14.4607 13.1716 14.1397L15.8656 0.545108C15.935 0.194488 15.6066 -0.0980102 15.2883 0.031113L0.276113 6.10651C-0.0943566 6.2564 -0.0911287 6.80664 0.2804 6.9527ZM5.12599 7.62252L12.2749 3.00345C12.4034 2.92068 12.5356 3.10293 12.4253 3.21029L6.52532 8.96366C6.31794 9.16617 6.18416 9.43718 6.14627 9.73135L5.9453 11.2938C5.91868 11.5024 5.63933 11.5231 5.58446 11.3212L4.8115 8.47203C4.72297 8.14706 4.85198 7.79994 5.12599 7.62252Z" transform="translate(6.58961 7.88087) scale(0.996421)" fill="#555555"/>
</g>
</g>
</g>
</svg>
