<svg width="29" height="29" viewBox="0 0 29 29" fill="none" xmlns="http://www.w3.org/2000/svg">
<g id="whatsapp">
<ellipse id="Ellipse" cx="14.5521" cy="14.5" rx="14.5521" ry="14.5" transform="scale(0.996421)" fill="white"/>
<g id="Group">
<g id="Vector" transform="translate(6.59156 6.56723) scale(0.996421)">
<mask id="path-2-inside-1" fill="white">
<path d="M7.54943 0.00914783C3.3227 0.20806 -0.0127855 3.68716 3.68439e-05 7.86945C0.00394095 9.14328 0.315083 10.3456 0.863955 11.408L0.0212415 15.451C-0.0243447 15.6697 0.175224 15.8612 0.395041 15.8097L4.40337 14.8711C5.43318 15.3781 6.58986 15.671 7.81403 15.6894C12.1342 15.7547 15.7364 12.3643 15.871 8.09598C16.0154 3.52067 12.1948 -0.209511 7.54943 0.00914783ZM12.3322 12.1888C11.1584 13.349 9.5976 13.988 7.93751 13.988C6.96546 13.988 6.03483 13.7724 5.17137 13.3473L4.61316 13.0725L2.15564 13.648L2.67293 11.166L2.39792 10.6338C1.94968 9.76612 1.7224 8.82789 1.7224 7.84517C1.7224 6.20435 2.36887 4.66178 3.54275 3.50153C4.70613 2.35168 6.29235 1.70232 7.93762 1.70232C9.59771 1.70236 11.1584 2.34131 12.3323 3.50149C13.5061 4.66171 14.1526 6.20428 14.1527 7.84505C14.1526 9.47123 13.4956 11.039 12.3322 12.1888Z"/>
</mask>
<path d="M7.54943 0.00914783C3.3227 0.20806 -0.0127855 3.68716 3.68439e-05 7.86945C0.00394095 9.14328 0.315083 10.3456 0.863955 11.408L0.0212415 15.451C-0.0243447 15.6697 0.175224 15.8612 0.395041 15.8097L4.40337 14.8711C5.43318 15.3781 6.58986 15.671 7.81403 15.6894C12.1342 15.7547 15.7364 12.3643 15.871 8.09598C16.0154 3.52067 12.1948 -0.209511 7.54943 0.00914783ZM12.3322 12.1888C11.1584 13.349 9.5976 13.988 7.93751 13.988C6.96546 13.988 6.03483 13.7724 5.17137 13.3473L4.61316 13.0725L2.15564 13.648L2.67293 11.166L2.39792 10.6338C1.94968 9.76612 1.7224 8.82789 1.7224 7.84517C1.7224 6.20435 2.36887 4.66178 3.54275 3.50153C4.70613 2.35168 6.29235 1.70232 7.93762 1.70232C9.59771 1.70236 11.1584 2.34131 12.3323 3.50149C13.5061 4.66171 14.1526 6.20428 14.1527 7.84505C14.1526 9.47123 13.4956 11.039 12.3322 12.1888Z" fill="#555555" stroke="#555555" stroke-width="2" mask="url(#path-2-inside-1)"/>
</g>
<path id="Vector_2" d="M7.85153 5.48289L6.31404 5.04656C6.1119 4.98921 5.89423 5.04588 5.74695 5.19421L5.37097 5.57282C5.21243 5.73246 4.97187 5.78376 4.76204 5.69985C4.03473 5.40894 2.50478 4.06445 2.11406 3.39194C2.00134 3.19794 2.01998 2.95541 2.15838 2.7784L2.48663 2.35868C2.61524 2.19423 2.64238 1.97338 2.55733 1.78328L1.91047 0.337291C1.75553 -0.00904589 1.30775 -0.109864 1.01521 0.134671C0.586099 0.493378 0.0769569 1.03848 0.0150653 1.64236C-0.0940584 2.70706 0.367928 4.0492 2.11494 5.66077C4.13321 7.52259 5.74943 7.76856 6.80174 7.51661C7.39861 7.37373 7.8756 6.8009 8.17664 6.33188C8.38187 6.0121 8.21982 5.58742 7.85153 5.48289Z" transform="translate(10.515 10.6162) scale(0.996421)" fill="#555555"/>
</g>
</g>
</svg>
