<svg version="1" xmlns="http://www.w3.org/2000/svg" width="1301.333" height="1301.333" viewBox="0 0 976 976"><path d="M238 15.5V23h-7.4c-4.1 0-7.8.4-8.1 1-.3.5-4.1 1-8.4 1h-7.9l-.7 15.5-.7 15.4-7.2.3-7.1.3-.3 24.2-.2 24.2 7.7.3 7.8.3.3 8.2.3 8.3H222v15.7l20.3.6c11.1.3 29.2 0 40.2-.6l20-1v-15.2l7.6-.3 7.7-.3.7-15.4.7-15.5H334v14.9l8.8.3 8.7.3.3 7.6.3 7.7 15.3.7 15.4.7.7 15.4.7 15.3 7.7.3 7.6.3.3 8.2.3 8.3h15.6l.8 16 .7 15.9 7.1.3 7.2.3.9 15.7.8 15.8H448v17h-17v14.7l-10.7.6c-5.8.4-18.1.7-27.3.7s-22.2.3-28.8.7l-12.2.6v14.5l-16.5.7-16.5.7V300h-16v15h-76.2c-42 0-82 .3-89 .7l-12.7.6-.3 8.1-.3 8.1-7.2.3-7.3.3-.1 5.2c-.1 2.9-.4 13.5-.8 23.7l-.6 18.5-7.1.3-7.1.3-.6 24.1c-.9 30.9-.9 86.5 0 132.6l.6 36.2h13.4l.6 12.2c.4 6.6.7 25 .7 40.8 0 15.8.3 39.4.7 52.6l.6 23.9h14.2l.6 45.5c.3 25 .7 46.7.8 48.2.1 2.8.1 2.8 7.4 2.8h7.4l.6 24.7c.4 13.7.7 31.9.7 40.5V881h15l.2 16.2.3 16.3h678l.3-8 .3-8 7.4.3 7.5.4v-28.5c0-15.6.3-33.9.7-40.5l.6-12.2h14.4l.6-12.8c.4-7 .7-23.8.7-37.3 0-13.5.3-29.4.7-35.2l.6-10.7h13.4l.6-24.8c.4-13.6.7-33.7.7-44.8 0-11 .3-25.6.7-32.2l.6-12.2H900V365.1l-7.7-.3-7.8-.3-.9-16.3-.8-16.2h-14.7l-.3-8.3-.3-8.2-88.7-.3-88.7-.2-.3-7.8-.3-7.7-7.7-.3-7.8-.3V283l-16.2-.2-16.3-.3-.3-7.1-.3-7.1-12.1-.6c-6.7-.4-20.8-.7-31.5-.7H578v-27h15.8l.7-15 .7-15H611v-16h15.9l.3-7.8.3-7.7 8.3-.3 8.2-.3v-14.6l12-.6c6.6-.4 17.4-.4 23.9 0l11.9.6.7 14.7.7 14.8 15.9.7 15.9.7V209h33v-14.8l15.9-.7 15.9-.7.7-14.9.7-14.8 7.7-.3 7.6-.3.3-15.5c.2-8.5 0-22.3-.3-30.7l-.7-15.2-7.7-.3-7.6-.3-.3-7.7-.3-7.7-8.2-.3-8.2-.3-.3-7.8-.3-7.7H709v16h-17v16h-16v15h-32v15h-17v15.8l-15.9.7-15.9.7-.7 14.4-.7 14.4-7.2-.2-7.1-.2 6.8-.3 6.7-.4V163h-13.8l-.7 15-.7 15h-15.7l-.3 8.2-.3 8.3-7.7.3-7.6.3-.7 14.9-.8 14.9-7.6.3-7.6.3-.3 5.2-.3 5.3H496v-16h-14.8l-.7-16.5-.7-16.5H464v-32h-16v-30.9l-7.7-.3-7.8-.3-.5-8.5-.5-8.5-7.7-.3-7.7-.3-.3-7.7-.3-7.7-7.7-.3-7.8-.3V89h-17V73.1l-15.7-.3-15.8-.3V57H319V41h-16V24h-16V8h-49v7.5zm128.7 263.2c-.2 2.1-.4.6-.4-3.2 0-3.9.2-5.5.4-3.8.2 1.8.2 5 0 7zM352 436.5v7.5l7.3-.2 7.2-.2-6.7-.3-6.8-.4v-12.7l7-.4 7-.3V445h17v15.9l8.3.3 8.2.3.3 7.7.3 7.8H416v17h14.7l.6 12.2c.4 6.6.7 19.2.7 27.8 0 8.6-.3 21.2-.7 27.8l-.6 12.2H416v5.3c0 3-.3 10.2-.7 16l-.6 10.7H400v17h-17l-.2 7.7-.2 7.8-.3-7.3-.4-7.2H368v15h-97v-16h-17v-16h-16v-17h-14.7l-.6-11.3c-.4-6.1-.7-28-.7-48.5V493h16v-30.9l8.3-.3 8.2-.3.3-8.3.3-8.2H287v-16h65v7.5zm354.2.2l.3 7.8 15.8.3 15.7.3v15.8l8.3.3 8.2.3.3 8.2.3 8.3h14.7l.7 15.2c.3 8.4.5 33.7.3 56.3l-.3 41-7.7.3-7.8.3V607h-16v15.9l-8.2.3-8.3.3-.3 7.7-.3 7.8H625v-16h-30.8l-.7-16.1-.7-16-7.6.2c-4.2.1-7.7-.2-7.9-.7-.2-.5-.4-7.9-.6-16.4l-.2-15.5-7.2-.3-7.3-.3v-47.8l7.3-.3 7.2-.3.5-16 .5-16 7.7-.3 7.7-.3.3-7.7.3-7.7 7.8-.3 7.7-.3V445l8.8-.1c4.8 0 12 0 16 .1l7.2.1v-7.4c0-4 .3-7.7.7-8 .3-.4 14.9-.7 32.4-.7h31.8l.3 7.7zm79.8 97.5v7.3l-7-.3-7-.4V527h14v7.2zM612.8 735.7l12.2.6V801h-16v16.1l-7.7-.3-7.8-.3-.3-7.3-.3-7.2H400v15h-15.9l-.3-8.2-.3-8.1-7.7.2-7.8.2v-65l8.3-.4c16-.6 224.6-.7 236.5 0z"/><path d="M295.3 493.7l-8.3.4V526h-16v16h14.8l.7 16 .7 16H303v16h33v-14.8l15.4-.7 15.4-.7.7-16.2c.3-8.8.5-23.3.3-32.1l-.3-16-7.7-.3-7.7-.3-.3-7.7-.3-7.7-24-.1c-13.2 0-27.7.1-32.2.3zm346.5 7.5l-.3 8.3-8.2.3-8.3.3.3 24.2.2 24.2 7.8.3 7.7.3v14.8l8.3.3 8.2.3.3 7.7.3 7.8H690v-16h17v-16h15v-47.9l-7.7-.3-7.8-.3-.3-8.3-.3-8.2h-63.8l-.3 8.2z"/></svg>