<svg 
 xmlns="http://www.w3.org/2000/svg"
 xmlns:xlink="http://www.w3.org/1999/xlink"
 width="47px" height="29px">
<defs>
<linearGradient id="PSgrad_0" x1="0%" x2="0%" y1="0%" y2="100%">
  <stop offset="0%" stop-color="rgb(63,79,210)" stop-opacity="1" />
  <stop offset="0%" stop-color="rgb(23,80,153)" stop-opacity="1" />
  <stop offset="0%" stop-color="rgb(71,129,255)" stop-opacity="1" />
  <stop offset="100%" stop-color="rgb(124,9,163)" stop-opacity="1" />
</linearGradient>

</defs>
<path fill-rule="evenodd"  fill="rgb(36, 35, 63)"
 d="M43.849,29.000 L3.151,29.000 C1.411,29.000 -0.000,27.589 -0.000,25.848 L-0.000,25.838 C-0.000,24.098 1.411,22.687 3.151,22.687 L43.849,22.687 C45.589,22.687 47.000,24.098 47.000,25.838 L47.000,25.848 C47.000,27.589 45.589,29.000 43.849,29.000 ZM43.849,17.656 L21.401,17.656 C19.661,17.656 18.250,16.245 18.250,14.505 L18.250,14.495 C18.250,12.754 19.661,11.344 21.401,11.344 L43.849,11.344 C45.589,11.344 47.000,12.754 47.000,14.495 L47.000,14.505 C47.000,16.245 45.589,17.656 43.849,17.656 ZM43.849,6.312 L3.151,6.312 C1.411,6.312 -0.000,4.901 -0.000,3.161 L-0.000,3.151 C-0.000,1.410 1.411,-0.000 3.151,-0.000 L43.849,-0.000 C45.589,-0.000 47.000,1.410 47.000,3.151 L47.000,3.161 C47.000,4.901 45.589,6.312 43.849,6.312 Z"/>
<path fill="url(#PSgrad_0)"
 d="M43.849,29.000 L3.151,29.000 C1.411,29.000 -0.000,27.589 -0.000,25.848 L-0.000,25.838 C-0.000,24.098 1.411,22.687 3.151,22.687 L43.849,22.687 C45.589,22.687 47.000,24.098 47.000,25.838 L47.000,25.848 C47.000,27.589 45.589,29.000 43.849,29.000 ZM43.849,17.656 L21.401,17.656 C19.661,17.656 18.250,16.245 18.250,14.505 L18.250,14.495 C18.250,12.754 19.661,11.344 21.401,11.344 L43.849,11.344 C45.589,11.344 47.000,12.754 47.000,14.495 L47.000,14.505 C47.000,16.245 45.589,17.656 43.849,17.656 ZM43.849,6.312 L3.151,6.312 C1.411,6.312 -0.000,4.901 -0.000,3.161 L-0.000,3.151 C-0.000,1.410 1.411,-0.000 3.151,-0.000 L43.849,-0.000 C45.589,-0.000 47.000,1.410 47.000,3.151 L47.000,3.161 C47.000,4.901 45.589,6.312 43.849,6.312 Z"/>
</svg>