<svg xmlns="http://www.w3.org/2000/svg" width="11" height="11"><path d="M8.09 7.46l-.64.645a.468.468 0 0 1-.66 0l-1.29-1.3-1.3 1.3a.44.44 0 0 1-.32.136.446.446 0 0 1-.33-.136L2.9 7.46a.447.447 0 0 1-.13-.329.44.44 0 0 1 .13-.323l1.3-1.3-1.3-1.3a.474.474 0 0 1 0-.652l.65-.645a.447.447 0 0 1 .33-.137.441.441 0 0 1 .32.137l1.3 1.3 1.29-1.3a.466.466 0 0 1 .66 0l.64.645a.45.45 0 0 1 0 .652l-1.3 1.3 1.3 1.3a.45.45 0 0 1 .14.323.456.456 0 0 1-.14.329zM8.26.747A5.363 5.363 0 0 0 5.5.009a5.5 5.5 0 1 0 0 11 5.363 5.363 0 0 0 2.76-.738 5.473 5.473 0 0 0 2-2 5.523 5.523 0 0 0 0-5.523 5.473 5.473 0 0 0-2-2.001z" fill="#fc486a" fill-rule="evenodd"/></svg>