<svg 
 xmlns="http://www.w3.org/2000/svg"
 xmlns:xlink="http://www.w3.org/1999/xlink"
 width="20px" height="15px">
<path fill-rule="evenodd"  fill="rgb(7, 158, 185)"
 d="M0.000,14.999 L0.000,0.006 L20.004,0.006 L20.004,14.999 L0.000,14.999 ZM0.968,13.355 L6.712,7.503 L0.968,1.650 L0.968,13.355 ZM1.614,0.993 L8.905,8.423 C9.712,9.245 10.293,9.245 11.099,8.423 L18.392,0.993 L1.614,0.993 ZM18.392,14.013 L12.648,8.161 C11.519,9.311 10.777,10.100 10.002,10.100 C9.228,10.100 8.486,9.311 7.357,8.161 L1.614,14.013 L18.392,14.013 ZM13.294,7.503 L19.036,13.355 L19.036,1.650 L13.294,7.503 Z"/>
</svg>