<svg 
 xmlns="http://www.w3.org/2000/svg"
 xmlns:xlink="http://www.w3.org/1999/xlink"
 width="2132px" height="951px">
<defs>
<linearGradient id="PSgrad_0" x1="0%" x2="0%" y1="0%" y2="100%">
  <stop offset="0%" stop-color="rgb(104,168,255)" stop-opacity="1" />
  <stop offset="0%" stop-color="rgb(204,124,255)" stop-opacity="1" />
  <stop offset="0%" stop-color="rgb(111,2,200)" stop-opacity="1" />
  <stop offset="100%" stop-color="rgb(0,59,179)" stop-opacity="1" />
</linearGradient>

</defs>
<path fill-rule="evenodd"  fill="rgb(161, 46, 255)"
 d="M2026.000,112.373 L2026.000,879.368 C2081.320,885.615 2112.000,892.506 2112.000,899.749 C2112.000,928.054 1643.690,951.000 1066.000,951.000 C488.310,951.000 20.000,928.054 20.000,899.749 C20.000,892.506 50.680,885.615 106.000,879.368 L106.000,112.373 C38.087,102.071 0.000,90.511 0.000,78.296 C0.000,35.054 477.265,-0.000 1066.000,-0.000 C1654.735,-0.000 2132.000,35.054 2132.000,78.296 C2132.000,90.511 2093.913,102.071 2026.000,112.373 Z"/>
<path fill="url(#PSgrad_0)"
 d="M2026.000,112.373 L2026.000,879.368 C2081.320,885.615 2112.000,892.506 2112.000,899.749 C2112.000,928.054 1643.690,951.000 1066.000,951.000 C488.310,951.000 20.000,928.054 20.000,899.749 C20.000,892.506 50.680,885.615 106.000,879.368 L106.000,112.373 C38.087,102.071 0.000,90.511 0.000,78.296 C0.000,35.054 477.265,-0.000 1066.000,-0.000 C1654.735,-0.000 2132.000,35.054 2132.000,78.296 C2132.000,90.511 2093.913,102.071 2026.000,112.373 Z"/>
</svg>