<svg 
 xmlns="http://www.w3.org/2000/svg"
 xmlns:xlink="http://www.w3.org/1999/xlink"
 width="2138px" height="1784px">
<defs>
<linearGradient id="PSgrad_0" x1="0%" x2="0%" y1="0%" y2="100%">
  <stop offset="0%" stop-color="rgb(104,168,255)" stop-opacity="1" />
  <stop offset="0%" stop-color="rgb(204,124,255)" stop-opacity="1" />
  <stop offset="0%" stop-color="rgb(111,2,200)" stop-opacity="1" />
  <stop offset="100%" stop-color="rgb(0,59,179)" stop-opacity="1" />
</linearGradient>

</defs>
<path fill-rule="evenodd"  fill="rgb(161, 46, 255)"
 d="M2032.000,123.811 L2032.000,984.031 L2032.000,990.312 L2032.000,1670.778 C2073.396,1679.829 2096.000,1689.608 2096.000,1699.812 C2096.000,1746.308 1626.794,1783.999 1048.000,1783.999 C469.206,1783.999 0.000,1746.308 0.000,1699.812 C0.000,1686.433 38.863,1673.783 108.000,1662.549 L108.000,984.031 L112.000,984.031 L112.000,123.811 C44.087,112.460 6.000,99.723 6.000,86.266 C6.000,38.622 483.265,-0.000 1072.000,-0.000 C1660.735,-0.000 2138.000,38.622 2138.000,86.266 C2138.000,99.723 2099.913,112.460 2032.000,123.811 Z"/>
<path fill="url(#PSgrad_0)"
 d="M2032.000,123.811 L2032.000,984.031 L2032.000,990.312 L2032.000,1670.778 C2073.396,1679.829 2096.000,1689.608 2096.000,1699.812 C2096.000,1746.308 1626.794,1783.999 1048.000,1783.999 C469.206,1783.999 0.000,1746.308 0.000,1699.812 C0.000,1686.433 38.863,1673.783 108.000,1662.549 L108.000,984.031 L112.000,984.031 L112.000,123.811 C44.087,112.460 6.000,99.723 6.000,86.266 C6.000,38.622 483.265,-0.000 1072.000,-0.000 C1660.735,-0.000 2138.000,38.622 2138.000,86.266 C2138.000,99.723 2099.913,112.460 2032.000,123.811 Z"/>
</svg>