<svg width="75" height="75" viewBox="0 0 75 75" fill="none" xmlns="http://www.w3.org/2000/svg">
<g clip-path="url(#clip0)">
<path d="M37.5 5.04242C27.9831 5.04242 20.2404 12.785 20.2404 22.3021V27.6041C20.2404 28.0311 20.4878 28.4196 20.8749 28.5999L37.036 36.1299C37.183 36.1985 37.3415 36.2327 37.5 36.2327C37.6584 36.2327 37.817 36.1985 37.9639 36.1299L54.125 28.5999C54.5121 28.4196 54.7597 28.0311 54.7597 27.6041V22.3021C54.7597 12.785 47.017 5.04242 37.5 5.04242Z" fill="#FFC89F"/>
<path d="M31.1061 24.096C29.9838 24.096 29.0708 23.1831 29.0708 22.0609C29.0708 20.9386 29.9838 20.0258 31.1061 20.0258C32.2283 20.0258 33.1413 20.9386 33.1413 22.0609C33.1413 23.1831 32.2283 24.096 31.1061 24.096Z" fill="#464649"/>
<path d="M43.894 24.096C42.7718 24.096 41.8589 23.1831 41.8589 22.0609C41.8589 20.9386 42.7719 20.0258 43.894 20.0258C45.0162 20.0258 45.9293 20.9386 45.9293 22.0609C45.9291 23.1831 45.0162 24.096 43.894 24.096Z" fill="#464649"/>
<path d="M37.4999 5.04242C36.6843 5.04242 35.8821 5.10057 35.0964 5.21058C43.4797 6.38378 49.9525 13.6006 49.9525 22.3021V24.7482L31.3708 33.4904L37.036 36.1301C37.1831 36.1986 37.3416 36.2329 37.5001 36.2329C37.6584 36.2329 37.817 36.1986 37.964 36.1301L54.125 28.6C54.5122 28.4197 54.7597 28.0312 54.7597 27.6042V26.6013V22.3021C54.7596 12.785 47.0168 5.04242 37.4999 5.04242Z" fill="#F7B081"/>
<path d="M56.6455 26.6833C55.6909 26.075 54.5084 25.9973 53.4823 26.4753L37.5002 33.922L21.5178 26.4753C20.4919 25.9973 19.3093 26.075 18.3547 26.6833C17.3999 27.2917 16.83 28.3308 16.83 29.4629V44.2297C16.8296 44.2456 16.8296 44.2617 16.83 44.2779V54.3299C16.83 65.7274 26.1026 75 37.5002 75C48.8977 75 58.1703 65.7274 58.1703 54.3299V29.4629C58.1701 28.3308 57.6001 27.2918 56.6455 26.6833Z" fill="#8CC7EC"/>
<path d="M56.6455 26.6833C55.6909 26.075 54.5085 25.9973 53.4824 26.4753L52.0163 27.1584C52.6137 27.7666 52.9565 28.5865 52.9565 29.4629V54.3299C52.9565 64.8446 45.0646 73.5506 34.8932 74.8363C35.7472 74.9442 36.6172 75 37.5 75C48.8975 75 58.1702 65.7274 58.1702 54.3299V29.4629C58.1702 28.3308 57.6002 27.2918 56.6455 26.6833Z" fill="#00A0E3"/>
<path d="M16.83 40.2854V43.7445L37.5001 33.9219L33.9937 32.2882L16.83 40.2854Z" fill="#00A0E3"/>
<path d="M35.7368 7.34735C35.7051 7.34735 35.6734 7.34603 35.6416 7.34325C30.1884 6.87787 28.7397 2.83769 28.6806 2.66586C28.4835 2.09208 28.7889 1.46703 29.3628 1.26986C29.9337 1.07387 30.5559 1.37519 30.7559 1.94384C30.7978 2.05795 31.5579 4.03051 34.1882 4.84276C34.0232 3.73109 34.0623 2.23549 34.838 0.622548C35.1009 0.0757221 35.7574 -0.154405 36.3041 0.108681C36.8509 0.371621 37.0811 1.02802 36.818 1.57484C35.7488 3.79804 36.6706 5.66483 36.7105 5.74335C36.8981 6.09872 36.8747 6.52426 36.6528 6.85912C36.4486 7.16762 36.1027 7.34735 35.7368 7.34735Z" fill="#464649"/>
</g>
<defs>
<clipPath id="clip0">
<rect width="75" height="75" fill="white"/>
</clipPath>
</defs>
</svg>
