<svg width="75" height="75" viewBox="0 0 75 75" fill="none" xmlns="http://www.w3.org/2000/svg">
<g clip-path="url(#clip0)">
<path d="M49.5652 75C50.6374 75 51.455 74.0527 51.3144 72.9897C50.3309 65.5581 43.9701 59.8234 36.2697 59.8234C28.5694 59.8234 22.2085 65.5581 21.225 72.9897C21.0844 74.0527 21.9019 75 22.9742 75H49.5652Z" fill="#00A0E3"/>
<path opacity="0.1" d="M36.2697 59.8234C30.7405 59.8234 25.9021 62.7801 23.2491 67.1989C26.9117 69.8413 31.4085 71.3993 36.2697 71.3993C41.1309 71.3993 45.6277 69.8413 49.2903 67.1989C46.6373 62.7803 41.7989 59.8234 36.2697 59.8234Z" fill="black"/>
<path d="M36.2695 68.291C48.5738 68.291 58.5483 58.3164 58.5483 46.0122C58.5483 33.708 48.5738 23.7334 36.2695 23.7334C23.9653 23.7334 13.9907 33.708 13.9907 46.0122C13.9907 58.3164 23.9653 68.291 36.2695 68.291Z" fill="#FFE1B2"/>
<path opacity="0.1" d="M36.2697 23.7328C30.963 23.7328 26.0906 25.5894 22.264 28.6867C22.9669 30.7625 23.6556 32.5609 24.2051 33.5209C27.4428 38.6126 38.9939 43.6883 55.039 39.8318C55.2325 41.0116 55.3341 42.2221 55.3341 43.4567C55.3341 55.7612 45.3592 65.7361 33.0547 65.7361C28.5547 65.7361 24.3673 64.4007 20.8644 62.1063C24.8657 65.9373 30.2926 68.2913 36.2697 68.2913C48.5742 68.2913 58.5491 58.3166 58.5491 46.0119C58.5491 33.7076 48.5742 23.7328 36.2697 23.7328Z" fill="black"/>
<path d="M27.7394 50.4734C27.1326 50.4734 26.6407 49.9817 26.6407 49.3748V47.5351C26.6407 46.9282 27.1326 46.4365 27.7394 46.4365C28.3461 46.4365 28.838 46.9282 28.838 47.5351V49.3748C28.838 49.9817 28.3461 50.4734 27.7394 50.4734Z" fill="#4A5058"/>
<path d="M49.9031 50.4734C49.2963 50.4734 48.8044 49.9817 48.8044 49.3748V47.5351C48.8044 46.9282 49.2963 46.4365 49.9031 46.4365C50.51 46.4365 51.0017 46.9282 51.0017 47.5351V49.3748C51.0017 49.9817 50.5098 50.4734 49.9031 50.4734Z" fill="#4A5058"/>
<path d="M38.8212 51.886C37.384 51.886 36.0172 51.2636 35.0713 50.1783C34.6726 49.7208 34.7204 49.0269 35.1777 48.6282C35.6352 48.2296 36.3292 48.2772 36.7278 48.7347C37.2563 49.3411 38.0192 49.6889 38.8212 49.6889C39.6232 49.6889 40.3862 49.3411 40.9146 48.7347C41.3133 48.2772 42.0072 48.2296 42.4647 48.6282C42.9222 49.0269 42.9698 49.7208 42.5712 50.1783C41.6253 51.2636 40.2585 51.886 38.8212 51.886Z" fill="#4A5058"/>
<path d="M36.2697 23.7328C26.2856 23.7328 17.8358 30.3003 15.0038 39.3509C19.3311 41.3269 24.3845 37.5566 24.2051 33.5211C26.5645 39.1389 54.1825 42.6353 61.6287 31.2868C61.8344 30.9733 61.6148 30.5536 61.24 30.5482C55.8685 30.4711 48.1448 23.7328 36.2697 23.7328Z" fill="#4A5058"/>
<path d="M45.537 28.8792H27.0024C25.9647 28.8792 25.2749 27.8057 25.7061 26.8619L34.9761 6.57128C35.4825 5.46298 37.057 5.46298 37.5634 6.57128L46.8334 26.8617C47.2645 27.8057 46.5747 28.8792 45.537 28.8792Z" fill="#FFC107"/>
<path d="M32.6851 20.4448C32.404 20.4448 32.1227 20.3376 31.9081 20.123C31.4791 19.6939 31.4792 18.9983 31.9083 18.5693L32.9407 17.5369C33.3698 17.108 34.0653 17.1079 34.4945 17.5371C34.9235 17.9661 34.9234 18.6618 34.4945 19.0907L33.4621 20.1231C33.2475 20.3376 32.9662 20.4448 32.6851 20.4448Z" fill="#00A0E3"/>
<path d="M38.8985 21.2319C38.7317 21.2319 38.5626 21.1938 38.4036 21.1134C37.8621 20.8396 37.6451 20.1787 37.9188 19.6371L38.5777 18.3341C38.8515 17.7929 39.5123 17.5756 40.054 17.8494C40.5954 18.1232 40.8125 18.7841 40.5387 19.3257L39.8798 20.6288C39.6865 21.0113 39.2997 21.2319 38.8985 21.2319Z" fill="#FF50AE"/>
<path d="M37.2549 17.0814C36.9738 17.0814 36.6926 16.9742 36.478 16.7596L35.4929 15.7743C35.0638 15.3453 35.064 14.6496 35.493 14.2207C35.9221 13.7918 36.6177 13.7917 37.0468 14.2208L38.0319 15.2061C38.4609 15.6352 38.4609 16.3308 38.0319 16.7597C37.8171 16.9742 37.536 17.0814 37.2549 17.0814Z" fill="white"/>
<path d="M46.8334 26.8618L45.2232 23.3373H27.3163L25.7061 26.8618C25.2749 27.8056 25.9647 28.8791 27.0024 28.8791H45.537C46.5747 28.8793 47.2645 27.8057 46.8334 26.8618Z" fill="#E5097F"/>
<path opacity="0.1" d="M46.8334 26.8617L37.5634 6.57128C37.057 5.46298 35.4824 5.46298 34.976 6.57128L32.1638 12.7268C32.5316 13.0471 33.0162 13.2324 33.5373 13.2121C34.0543 13.1921 34.5585 13.3756 34.9417 13.7234C35.6951 14.4069 36.8443 14.4069 37.5978 13.7234C37.7301 13.6034 37.8774 13.5045 38.034 13.4253L44.1728 26.8619C44.604 27.8057 43.9142 28.8792 42.8765 28.8792H45.5373C46.5747 28.8792 47.2646 27.8057 46.8334 26.8617Z" fill="black"/>
<path d="M37.017 0.147086C37.9587 -0.237582 39.0386 0.155436 39.5128 1.05544C39.7541 1.5132 40.1651 1.85817 40.6577 2.01608C41.6264 2.32677 42.2009 3.32199 41.9857 4.31632C41.8763 4.82199 41.9695 5.3505 42.2453 5.7882C42.7876 6.6488 42.5881 7.78068 41.784 8.40382C41.3751 8.72082 41.1068 9.18561 41.0367 9.69816C40.899 10.7061 40.0186 11.4448 39.002 11.4054C38.4851 11.3854 37.9807 11.5689 37.5975 11.9167C36.8441 12.6002 35.6948 12.6002 34.9415 11.9167C34.5583 11.5691 34.0541 11.3855 33.537 11.4054C32.5205 11.4448 31.6401 10.7061 31.5023 9.69816C31.4323 9.18546 31.1639 8.72082 30.7549 8.40382C29.9509 7.78053 29.7514 6.6488 30.2937 5.7882C30.5695 5.3505 30.6626 4.82199 30.5532 4.31632C30.3379 3.32214 30.9125 2.32677 31.8813 2.01608C32.3739 1.85802 32.7851 1.5132 33.0262 1.05544C33.5003 0.155436 34.5802 -0.237582 35.522 0.147086C36.0014 0.34279 36.538 0.34279 37.017 0.147086Z" fill="#E5097F"/>
<path d="M66.5141 33.6685C66.3464 33.6685 66.176 33.6299 66.0164 33.5486C65.4757 33.2732 65.2607 32.6118 65.5362 32.071C66.8755 29.4417 66.1084 26.2837 63.7123 24.5617C61.1554 22.7241 59.8828 19.5378 60.47 16.4445C60.5831 15.8483 61.1587 15.457 61.7543 15.57C62.3503 15.683 62.7419 16.258 62.6288 16.8542C62.2003 19.1115 63.129 21.4365 64.9946 22.7774C68.2782 25.137 69.3294 29.465 67.4941 33.0682C67.2999 33.4492 66.9142 33.6685 66.5141 33.6685Z" fill="#FFC107"/>
<path d="M61.23 73.7449C60.9288 73.7449 60.6291 73.6218 60.4121 73.3804C60.0067 72.929 60.044 72.2343 60.4953 71.8289C62.2048 70.2937 62.876 67.8819 62.2054 65.6841C61.0253 61.8168 62.8136 57.7378 66.4577 55.9856C67.0041 55.7225 67.6609 55.9526 67.9239 56.4996C68.1869 57.0463 67.9568 57.7028 67.4098 57.9657C64.7509 59.2444 63.446 62.2208 64.307 65.043C65.2258 68.0546 64.306 71.3598 61.9636 73.4636C61.7538 73.652 61.4913 73.7449 61.23 73.7449Z" fill="#E5097F"/>
<path d="M4.76575 57.346C4.39324 57.346 4.02981 57.1564 3.82356 56.8141C2.1989 54.1169 2.28621 50.6871 4.04607 48.0762C5.69519 45.6294 5.31814 42.4015 3.14944 40.401C2.7034 39.9895 2.67542 39.2944 3.08689 38.8485C3.49822 38.4025 4.19344 38.3745 4.63933 38.7858C7.61135 41.5276 8.12815 45.9513 5.86819 49.3043C4.58396 51.2096 4.52024 53.7123 5.70574 55.6803C6.01892 56.2002 5.85135 56.8752 5.33162 57.1884C5.15408 57.2953 4.95867 57.346 4.76575 57.346Z" fill="#E5097F"/>
<path d="M13.5692 29.4666C13.3793 29.4666 13.1871 29.4174 13.0118 29.314C12.4893 29.0056 12.3156 28.3321 12.6241 27.8094C13.0162 27.1448 13.1108 26.3866 12.8974 25.6169C12.6318 24.6586 11.9057 23.7977 10.9052 23.2551C9.14915 22.3027 7.98533 20.7282 7.71214 18.9357C7.4741 17.3745 7.97464 15.8238 9.08528 14.6812C9.50833 14.2463 10.2038 14.2365 10.6389 14.6594C11.074 15.0824 11.0838 15.7779 10.6607 16.213C10.0247 16.8672 9.74886 17.7167 9.88421 18.6047C10.0528 19.7111 10.8068 20.702 11.9527 21.3236C13.4747 22.149 14.5908 23.4999 15.0147 25.03C15.3857 26.3689 15.2088 27.7526 14.5162 28.9261C14.3114 29.2736 13.9452 29.4666 13.5692 29.4666Z" fill="#00A0E3"/>
<path d="M68.621 48.6339C68.251 48.6339 67.8897 48.447 67.6826 48.1081C67.3662 47.5904 67.5294 46.9142 68.0471 46.5977C68.8951 46.0794 69.1773 44.9951 68.6897 44.1291C68.102 43.0854 68.008 41.8442 68.4311 40.7241C68.8543 39.6039 69.7457 38.7351 70.8763 38.3406C71.4492 38.1407 72.0757 38.4433 72.2755 39.0162C72.4751 39.5891 72.1728 40.2156 71.5999 40.4154C71.085 40.595 70.6794 40.9905 70.4865 41.5004C70.2938 42.0106 70.3368 42.5758 70.6042 43.051C71.6752 44.9528 71.0553 47.3342 69.1929 48.4725C69.0142 48.5818 68.8163 48.6339 68.621 48.6339Z" fill="#00A0E3"/>
<path d="M10.4624 72.7909C10.1952 72.7909 9.92727 72.6941 9.71574 72.498C9.27072 72.0856 9.24436 71.3905 9.65686 70.9454C10.3324 70.2165 10.3102 69.0963 9.60603 68.3951C8.75744 67.5499 8.33015 66.3809 8.43371 65.1877C8.53728 63.9945 9.15954 62.9167 10.1408 62.2304C10.6379 61.8828 11.323 62.004 11.6707 62.5013C12.0183 62.9986 11.8972 63.6834 11.3999 64.0312C10.9531 64.3436 10.6698 64.8343 10.6226 65.3775C10.5755 65.9208 10.77 66.4531 11.1566 66.838C12.703 68.3782 12.7521 70.8384 11.2683 72.4389C11.052 72.6726 10.7575 72.7909 10.4624 72.7909Z" fill="#FFC107"/>
</g>
<defs>
<clipPath id="clip0">
<rect width="75" height="75" fill="white"/>
</clipPath>
</defs>
</svg>
