<svg width="16" height="12" viewBox="0 0 16 12" fill="none" xmlns="http://www.w3.org/2000/svg">
<g filter="url(#filter0_d)">
<path d="M3.70059 3.46825C3.3065 3.08133 2.67336 3.08714 2.28644 3.48123C1.89951 3.87532 1.90532 4.50846 2.29941 4.89538L3.70059 3.46825ZM6.88889 8L6.1883 8.71356C6.57729 9.09548 7.20049 9.09548 7.58948 8.71356L6.88889 8ZM13.7006 2.71356C14.0947 2.32664 14.1005 1.6935 13.7136 1.29941C13.3266 0.905319 12.6935 0.899511 12.2994 1.28644L13.7006 2.71356ZM2.29941 4.89538L6.1883 8.71356L7.58948 7.28644L3.70059 3.46825L2.29941 4.89538ZM7.58948 8.71356L13.7006 2.71356L12.2994 1.28644L6.1883 7.28644L7.58948 8.71356Z" fill="white"/>
</g>
<defs>
<filter id="filter0_d" x="0" y="0" width="16" height="12" filterUnits="userSpaceOnUse" color-interpolation-filters="sRGB">
<feFlood flood-opacity="0" result="BackgroundImageFix"/>
<feColorMatrix in="SourceAlpha" type="matrix" values="0 0 0 0 0 0 0 0 0 0 0 0 0 0 0 0 0 0 127 0"/>
<feOffset dy="1"/>
<feGaussianBlur stdDeviation="1"/>
<feColorMatrix type="matrix" values="0 0 0 0 0 0 0 0 0 0 0 0 0 0 0 0 0 0 0.25 0"/>
<feBlend mode="multiply" in2="BackgroundImageFix" result="effect1_dropShadow"/>
<feBlend mode="normal" in="SourceGraphic" in2="effect1_dropShadow" result="shape"/>
</filter>
</defs>
</svg>
