<svg width="40" height="40" viewBox="0 0 40 40" fill="none" xmlns="http://www.w3.org/2000/svg">
<circle cx="19.9994" cy="20" r="20" fill="#E5097F"/>
<path d="M13.5 18.7773C13.1059 18.3904 12.4727 18.3962 12.0858 18.7903C11.6989 19.1844 11.7047 19.8175 12.0988 20.2045L13.5 18.7773ZM19.0216 25.6L18.321 26.3136C18.71 26.6955 19.3332 26.6955 19.7222 26.3136L19.0216 25.6ZM29.5 16.7136C29.8941 16.3266 29.8999 15.6935 29.5129 15.2994C29.126 14.9053 28.4929 14.8995 28.0988 15.2864L29.5 16.7136ZM12.0988 20.2045L18.321 26.3136L19.7222 24.8864L13.5 18.7773L12.0988 20.2045ZM19.7222 26.3136L29.5 16.7136L28.0988 15.2864L18.321 24.8864L19.7222 26.3136Z" fill="white"/>
</svg>
