<svg width="72" height="80" viewBox="0 0 72 80" fill="none" xmlns="http://www.w3.org/2000/svg">
<g filter="url(#filter0_d)">
<path fill-rule="evenodd" clip-rule="evenodd" d="M31 50C44.8071 50 56 38.8071 56 25C56 11.1929 44.8071 0 31 0C17.1929 0 6 11.1929 6 25C6 38.8071 17.1929 50 31 50ZM31.0001 36.1112C37.1366 36.1112 42.1112 31.1366 42.1112 25.0001C42.1112 18.8636 37.1366 13.889 31.0001 13.889C24.8636 13.889 19.889 18.8636 19.889 25.0001C19.889 31.1366 24.8636 36.1112 31.0001 36.1112Z" fill="url(#paint0_linear)"/>
</g>
<defs>
<filter id="filter0_d" x="0" y="0" width="72" height="80" filterUnits="userSpaceOnUse" color-interpolation-filters="sRGB">
<feFlood flood-opacity="0" result="BackgroundImageFix"/>
<feColorMatrix in="SourceAlpha" type="matrix" values="0 0 0 0 0 0 0 0 0 0 0 0 0 0 0 0 0 0 127 0"/>
<feOffset dx="5" dy="19"/>
<feGaussianBlur stdDeviation="5.5"/>
<feColorMatrix type="matrix" values="0 0 0 0 0 0 0 0 0 0 0 0 0 0 0 0 0 0 0.25 0"/>
<feBlend mode="multiply" in2="BackgroundImageFix" result="effect1_dropShadow"/>
<feBlend mode="normal" in="SourceGraphic" in2="effect1_dropShadow" result="shape"/>
</filter>
<linearGradient id="paint0_linear" x1="12.9444" y1="6.25" x2="49.75" y2="40.625" gradientUnits="userSpaceOnUse">
<stop offset="0.112111" stop-color="#E5097F"/>
<stop offset="1" stop-color="#00A0E3"/>
</linearGradient>
</defs>
</svg>
