<svg width="75" height="75" viewBox="0 0 75 75" fill="none" xmlns="http://www.w3.org/2000/svg">
<g clip-path="url(#clip0)">
<path d="M58.1898 11.6381C54.1487 3.07135 46.5517 0.000244141 37.5 0.000244141C28.4483 0.000244141 20.8514 3.07135 16.8105 11.6381C12.7695 20.2049 15.1941 25.7006 10.345 38.7932C10.345 38.7932 19.0734 47.8449 37.5 47.8449C55.9267 47.8449 64.6551 38.7932 64.6551 38.7932C59.8061 25.7006 62.2307 20.2049 58.1898 11.6381Z" fill="#9D6E48"/>
<path d="M37.5 0.000244141C28.4483 0.000244141 20.8514 3.07135 16.8105 11.6381C12.7695 20.2049 15.1941 25.7006 10.345 38.7932C10.345 38.7932 18.4608 47.1574 35.5028 47.7841L35.3987 31.0346C35.3987 31.0346 27.1552 29.297 27.1552 23.276C27.1552 9.68312 35.4527 0.000244141 37.5 0.000244141Z" fill="#8D5F3D"/>
<path d="M61.4835 70.6079L59.9984 59.4698C59.8569 58.4088 59.4572 57.4228 58.8593 56.5813C59.1364 55.9896 58.9282 55.2706 58.3537 54.9258L54.1062 52.3773C53.5017 52.0146 52.7181 52.2029 52.3444 52.8008L52.255 52.9438L47.0271 51.0203C45.9712 50.6683 45.2588 49.68 45.2588 48.5668V44.3963L50.829 42.0753C53.7202 40.8708 55.6035 38.0459 55.6035 34.9137V33.6206C57.746 33.6206 59.4828 31.8838 59.4828 29.7413C59.4828 27.5988 57.746 25.862 55.6035 25.862V23.2758C55.6035 19.7049 52.7087 16.8103 49.138 16.8103H25.8622C22.2913 16.8103 19.3967 19.7049 19.3967 23.2758V25.862C17.2542 25.862 15.5174 27.5988 15.5174 29.7413C15.5174 31.8838 17.2542 33.6206 19.3967 33.6206V34.9137C19.3967 38.0457 21.28 40.8707 24.1712 42.0755L29.7415 44.3966V48.567C29.7415 49.6802 29.0292 50.6685 27.9732 51.0205L22.7454 52.944L22.656 52.8009C22.2823 52.2032 21.4986 52.0147 20.8941 52.3774L16.6466 54.926C16.072 55.2708 15.864 55.9897 16.141 56.5815C15.5433 57.423 15.1434 58.4089 15.002 59.4699L13.5168 70.608C13.2068 72.9335 15.0159 75 17.362 75H57.6381C59.9843 74.9999 61.7935 72.9333 61.4835 70.6079Z" fill="#FFD7A3"/>
<path d="M45.2586 44.3965L29.7414 44.3966V48.5671C29.7414 49.4873 29.2538 50.3211 28.4884 50.7816C39.3056 52.6505 45.2583 44.3971 45.2586 44.3965Z" fill="#FDC88E"/>
<path d="M52.3443 52.8008L51.3492 54.393C48.3647 59.168 43.1311 62.0688 37.5001 62.0688C31.8692 62.0688 26.6355 59.168 23.6511 54.393L22.656 52.8008C22.2823 52.2029 21.4987 52.0146 20.8942 52.3773L16.6467 54.9259C16.0265 55.298 15.832 56.1066 16.2154 56.72L21.9828 65.9482H53.0171L58.7847 56.72C59.1681 56.1066 58.9736 55.2981 58.3534 54.9259L54.1059 52.3773C53.5016 52.0146 52.718 52.2031 52.3443 52.8008Z" fill="#EF7F1A"/>
<path d="M55.6034 25.862V23.2758C55.6034 19.7049 52.7086 16.8103 49.1379 16.8103H25.8621C22.2912 16.8103 19.3966 19.7049 19.3966 23.2758V25.862C17.2541 25.862 15.5173 27.5988 15.5173 29.7413C15.5173 31.8838 17.2541 33.6206 19.3966 33.6206V34.9137C19.3966 38.0457 21.2799 40.8707 24.1711 42.0755L32.5263 45.5568C34.1022 46.2136 35.7926 46.5516 37.4998 46.5516C39.207 46.5516 40.8973 46.2136 42.4732 45.5568L50.8289 42.0753C53.7201 40.8708 55.6034 38.0459 55.6034 34.9137V33.6206C57.7459 33.6206 59.4827 31.8838 59.4827 29.7413C59.4827 27.5988 57.7459 25.862 55.6034 25.862Z" fill="#FFE1B2"/>
<path d="M28.4483 31.0343C27.737 31.0343 27.1552 30.4524 27.1552 29.7412V28.4481C27.1552 27.7369 27.737 27.155 28.4483 27.155C29.1595 27.155 29.7414 27.7369 29.7414 28.4481V29.7412C29.7414 30.4524 29.1595 31.0343 28.4483 31.0343Z" fill="#623F33"/>
<path d="M46.5516 31.0343C45.8404 31.0343 45.2585 30.4524 45.2585 29.7412V28.4481C45.2585 27.7369 45.8404 27.155 46.5516 27.155C47.2628 27.155 47.8447 27.7369 47.8447 28.4481V29.7412C47.8447 30.4524 47.2628 31.0343 46.5516 31.0343Z" fill="#623F33"/>
<path d="M37.5 40.1215C35.201 40.1215 33.0506 39.5558 31.6002 38.569C31.0099 38.1674 30.8564 37.363 31.2587 36.7727C31.6595 36.183 32.4647 36.0295 33.055 36.4311C34.0715 37.1225 35.7333 37.5354 37.5 37.5354C39.2667 37.5354 40.9285 37.1225 41.945 36.4311C42.5366 36.0283 43.3398 36.1824 43.7413 36.7727C44.1434 37.363 43.99 38.1674 43.3997 38.569C41.9495 39.5558 39.7989 40.1215 37.5 40.1215Z" fill="#E4B07B"/>
<path d="M24.569 16.9408C21.618 17.54 19.3966 20.1482 19.3966 23.276V25.8622C17.2541 25.8622 15.5173 27.599 15.5173 29.7415C15.5173 31.884 17.2541 33.6208 19.3966 33.6208V34.9139C19.3966 38.0459 21.2799 40.871 24.1711 42.0757L32.5261 45.557C32.935 45.7274 33.3524 45.8742 33.7751 46.0014C30.0826 43.3003 27.6248 40.9389 26.1846 39.3949C25.1369 38.2716 24.569 36.7892 24.569 35.253V25.8439C29.7472 25.7122 43.6366 24.7514 49.1379 19.3967C50.2735 18.2914 50.7565 17.5094 50.7919 16.9686L24.569 16.9408Z" fill="#FFD7A3"/>
<path d="M21.9829 18.1034V23.2758C21.9829 23.2758 31.1957 23.3954 40.0861 22.2517L43.9656 19.3965L43.9662 21.6591C48.2286 20.8917 52.0652 19.7628 54.3104 18.1034C54.3104 15.9609 52.5736 14.2241 50.4311 14.2241H25.8622C23.7197 14.2241 21.9829 15.9609 21.9829 18.1034Z" fill="#9D6E48"/>
<path d="M58.1571 1.32563C56.3896 -0.441876 53.5241 -0.441876 51.7566 1.32563C50.8291 2.2531 49.6723 4.2018 49.0346 6.1012C45.682 3.8386 41.6931 2.58624 37.5 2.58624C33.307 2.58624 29.3181 3.83844 25.9653 6.1012C25.3276 4.2018 24.1709 2.2531 23.2435 1.32563C21.476 -0.441876 18.6105 -0.441876 16.843 1.32563C15.0755 3.09313 15.0755 5.9588 16.843 7.72614C17.7276 8.61078 19.5436 9.70765 21.3586 10.362C20.8826 10.9587 20.4341 11.5839 20.0193 12.2395C19.638 12.8431 19.8172 13.6419 20.4208 14.0238C21.025 14.4064 21.8232 14.2252 22.2051 13.6223C25.5521 8.33131 31.2701 5.17243 37.5 5.17243C43.73 5.17243 49.4479 8.33131 52.795 13.6225C53.0411 14.0114 53.4604 14.2243 53.8892 14.2243C54.1254 14.2243 54.3646 14.1599 54.5794 14.0242C55.183 13.6422 55.3624 12.8434 54.9809 12.2399C54.566 11.5843 54.1175 10.959 53.6416 10.3621C55.4565 9.70765 57.2725 8.61094 58.1573 7.7263C59.9246 5.9588 59.9246 3.09313 58.1571 1.32563Z" fill="#EF7F1A"/>
<path d="M20.0433 2.58618C20.5613 2.58618 21.0485 2.7879 21.4148 3.15434C21.9593 3.69889 22.8081 5.06198 23.3517 6.46935C22.8467 6.89365 22.362 7.33945 21.8994 7.80464C20.5153 7.25572 19.202 6.42765 18.6716 5.89748C18.3054 5.53105 18.1036 5.04387 18.1036 4.52583C18.1036 4.00778 18.3054 3.52061 18.6718 3.15417C19.0382 2.7879 19.5252 2.58618 20.0433 2.58618Z" fill="#8D5F3D"/>
<path d="M54.9569 2.58618C55.4749 2.58618 55.9621 2.7879 56.3284 3.15434C56.6948 3.52061 56.8965 4.00778 56.8965 4.52583C56.8965 5.04388 56.6948 5.53105 56.3284 5.89732C55.798 6.42765 54.4847 7.25556 53.1006 7.80448C52.638 7.33912 52.1533 6.89349 51.6483 6.46919C52.1921 5.06182 53.0407 3.69889 53.5852 3.15417C53.9518 2.7879 54.4388 2.58618 54.9569 2.58618Z" fill="#8D5F3D"/>
<path d="M57.5359 54.4351L55.3173 53.1039L49.1891 62.9093C48.0077 64.7998 45.9357 65.9482 43.7064 65.9482H31.2942C29.0649 65.9482 26.9929 64.7998 25.8115 62.9093L19.6834 53.1039L17.4647 54.4351L23.4236 63.9698C23.9619 64.831 23.3427 65.9482 22.3271 65.9482H21.983V74.9999H53.0173V65.9482H52.6733C51.6578 65.9482 51.0386 64.831 51.5768 63.9698L57.5359 54.4351Z" fill="#8D5F3D"/>
<path d="M25.8622 14.2242C23.7197 14.2242 21.9829 15.961 21.9829 18.1035V23.2758C21.9829 23.2758 24.0438 23.3025 27.1559 23.2097C27.1624 19.9641 27.6417 16.9431 28.3947 14.224L25.8622 14.2242Z" fill="#8D5F3D"/>
</g>
<defs>
<clipPath id="clip0">
<rect width="75" height="75" fill="white"/>
</clipPath>
</defs>
</svg>
