<svg width="381" height="540" viewBox="0 0 381 540" fill="none" xmlns="http://www.w3.org/2000/svg">
<g filter="url(#filter0_d)">
<path fill-rule="evenodd" clip-rule="evenodd" d="M10 20C10 14.4772 14.4772 10 20 10H361C366.523 10 371 14.4772 371 20V530H359.573C359.85 529.218 360 528.377 360 527.5C360 523.358 356.642 520 352.5 520C348.358 520 345 523.358 345 527.5C345 528.377 345.15 529.218 345.427 530H334.573C334.85 529.218 335 528.377 335 527.5C335 523.358 331.642 520 327.5 520C323.358 520 320 523.358 320 527.5C320 528.377 320.15 529.218 320.427 530H309.573C309.85 529.218 310 528.377 310 527.5C310 523.358 306.642 520 302.5 520C298.358 520 295 523.358 295 527.5C295 528.377 295.15 529.218 295.427 530H284.573C284.85 529.218 285 528.377 285 527.5C285 523.358 281.642 520 277.5 520C273.358 520 270 523.358 270 527.5C270 528.377 270.15 529.218 270.427 530H259.573C259.85 529.218 260 528.377 260 527.5C260 523.358 256.642 520 252.5 520C248.358 520 245 523.358 245 527.5C245 528.377 245.15 529.218 245.427 530H234.573C234.85 529.218 235 528.377 235 527.5C235 523.358 231.642 520 227.5 520C223.358 520 220 523.358 220 527.5C220 528.377 220.15 529.218 220.427 530H209.573C209.85 529.218 210 528.377 210 527.5C210 523.358 206.642 520 202.5 520C198.358 520 195 523.358 195 527.5C195 528.377 195.15 529.218 195.427 530H184.573C184.85 529.218 185 528.377 185 527.5C185 523.358 181.642 520 177.5 520C173.358 520 170 523.358 170 527.5C170 528.377 170.15 529.218 170.427 530H159.573C159.85 529.218 160 528.377 160 527.5C160 523.358 156.642 520 152.5 520C148.358 520 145 523.358 145 527.5C145 528.377 145.15 529.218 145.427 530H134.573C134.85 529.218 135 528.377 135 527.5C135 523.358 131.642 520 127.5 520C123.358 520 120 523.358 120 527.5C120 528.377 120.15 529.218 120.427 530H109.573C109.85 529.218 110 528.377 110 527.5C110 523.358 106.642 520 102.5 520C98.3579 520 95 523.358 95 527.5C95 528.377 95.1504 529.218 95.4268 530H84.5732C84.8496 529.218 85 528.377 85 527.5C85 523.358 81.6421 520 77.5 520C73.3579 520 70 523.358 70 527.5C70 528.377 70.1504 529.218 70.4268 530H59.5732C59.8496 529.218 60 528.377 60 527.5C60 523.358 56.6421 520 52.5 520C48.3579 520 45 523.358 45 527.5C45 528.377 45.1504 529.218 45.4268 530H34.5732C34.8496 529.218 35 528.377 35 527.5C35 523.358 31.6421 520 27.5 520C23.3579 520 20 523.358 20 527.5C20 528.377 20.1504 529.218 20.4268 530H10V20Z" fill="white"/>
</g>
<defs>
<filter id="filter0_d" x="0" y="0" width="381" height="540" filterUnits="userSpaceOnUse" color-interpolation-filters="sRGB">
<feFlood flood-opacity="0" result="BackgroundImageFix"/>
<feColorMatrix in="SourceAlpha" type="matrix" values="0 0 0 0 0 0 0 0 0 0 0 0 0 0 0 0 0 0 127 0"/>
<feOffset/>
<feGaussianBlur stdDeviation="5"/>
<feColorMatrix type="matrix" values="0 0 0 0 0 0 0 0 0 0 0 0 0 0 0 0 0 0 0.1 0"/>
<feBlend mode="multiply" in2="BackgroundImageFix" result="effect1_dropShadow"/>
<feBlend mode="normal" in="SourceGraphic" in2="effect1_dropShadow" result="shape"/>
</filter>
</defs>
</svg>
