<svg width="258" height="269" viewBox="0 0 258 269" fill="none" xmlns="http://www.w3.org/2000/svg">
<g filter="url(#filter0_df)">
<path fill-rule="evenodd" clip-rule="evenodd" d="M116.454 221.532L11.3771 116.455L41.3991 86.4326L41.3995 86.433L86.0556 41.777L85.678 41.3994L115.7 11.3774L116.078 11.7549L116.455 11.3775L146.477 41.3995L146.1 41.777L190.378 86.055L190.755 85.6777L220.777 115.7L220.4 116.077L220.777 116.454L190.755 146.476L190.378 146.099L145.722 190.755L146.476 191.51L116.454 221.532ZM160.356 116.077L115.7 160.733L71.4215 116.455L116.078 71.799L160.356 116.077Z" fill="url(#paint0_linear)"/>
</g>
<defs>
<filter id="filter0_df" x="-6.10352e-05" y="-6.10352e-05" width="257.532" height="268.532" filterUnits="userSpaceOnUse" color-interpolation-filters="sRGB">
<feFlood flood-opacity="0" result="BackgroundImageFix"/>
<feColorMatrix in="SourceAlpha" type="matrix" values="0 0 0 0 0 0 0 0 0 0 0 0 0 0 0 0 0 0 127 0"/>
<feOffset dx="13" dy="24"/>
<feGaussianBlur stdDeviation="11.5"/>
<feColorMatrix type="matrix" values="0 0 0 0 0 0 0 0 0 0 0 0 0 0 0 0 0 0 0.28 0"/>
<feBlend mode="multiply" in2="BackgroundImageFix" result="effect1_dropShadow"/>
<feBlend mode="normal" in="SourceGraphic" in2="effect1_dropShadow" result="shape"/>
<feGaussianBlur stdDeviation="5.5" result="effect2_foregroundBlur"/>
</filter>
<linearGradient id="paint0_linear" x1="11.0731" y1="98.5043" x2="134.573" y2="222.004" gradientUnits="userSpaceOnUse">
<stop stop-color="#E5097F"/>
<stop offset="0.452268" stop-color="#7851AF"/>
<stop offset="1" stop-color="#00A0E3"/>
</linearGradient>
</defs>
</svg>
