<svg width="30" height="30" viewBox="0 0 30 30" fill="none" xmlns="http://www.w3.org/2000/svg">
<path fill-rule="evenodd" clip-rule="evenodd" d="M4 0C1.79086 0 0 1.79086 0 4V26C0 28.2091 1.79086 30 4 30H26C28.2091 30 30 28.2091 30 26V4C30 1.79086 28.2091 0 26 0H4ZM24.7958 20.1656C24.8032 20.1793 24.8088 20.1894 24.8128 20.1962C25.5085 21.35 24.041 21.4406 24.041 21.4406L21.236 21.4799C21.236 21.4799 20.6335 21.5994 19.8407 21.0547C19.4261 20.7698 19.0208 20.3051 18.6346 19.8623C18.0438 19.1849 17.4977 18.5588 17.0318 18.7064C16.2494 18.9545 16.2744 20.6386 16.2744 20.6386C16.2744 20.6386 16.281 20.9982 16.1024 21.1899C15.9095 21.3986 15.5301 21.4406 15.5301 21.4406H14.2753C14.2753 21.4406 11.5057 21.6073 9.06561 19.0674C6.40628 16.2965 4.05673 10.8006 4.05673 10.8006C4.05673 10.8006 3.92154 10.441 4.06855 10.2664C4.23394 10.0708 4.68416 10.0577 4.68416 10.0577L7.68475 10.0393C7.68475 10.0393 7.96827 10.0866 8.17041 10.2349C8.33711 10.357 8.43031 10.5854 8.43031 10.5854C8.43031 10.5854 8.91597 11.8127 9.55783 12.9218C10.8114 15.0889 11.3955 15.5628 11.8221 15.3304C12.4429 14.9918 12.2565 12.2681 12.2565 12.2681C12.2565 12.2681 12.2683 11.2784 11.9441 10.8387C11.6934 10.4974 11.2209 10.3977 11.0122 10.3701C10.8429 10.3478 11.1198 9.95534 11.4795 9.77945C12.0189 9.51562 12.9732 9.49986 14.0994 9.51168C14.9775 9.52087 15.2296 9.576 15.5735 9.65869C16.37 9.85076 16.3453 10.4671 16.2918 11.7974C16.2758 12.1944 16.2573 12.6551 16.2573 13.187C16.2573 13.307 16.2538 13.4349 16.2502 13.5666C16.2315 14.2472 16.21 15.0267 16.6577 15.316C16.8874 15.4643 17.4505 15.3383 18.8563 12.9507C19.5231 11.8192 20.0232 10.4883 20.0232 10.4883C20.0232 10.4883 20.1321 10.252 20.3014 10.1496C20.476 10.0459 20.7097 10.0774 20.7097 10.0774L23.8651 10.059C23.8651 10.059 24.8141 9.94615 24.9677 10.3741C25.1292 10.823 24.6133 11.873 23.323 13.5925C22.0978 15.2255 21.5021 15.8253 21.5579 16.3567C21.5986 16.7441 21.9855 17.0952 22.7271 17.7837C24.2868 19.2312 24.6995 19.9888 24.7958 20.1656Z" fill="#475993"/>
</svg>
