<svg width="75" height="75" viewBox="0 0 75 75" fill="none" xmlns="http://www.w3.org/2000/svg">
<g clip-path="url(#clip0)">
<path d="M55.2855 42.7649C55.3627 42.6345 55.4401 42.5299 55.5172 42.446C58.4539 37.8658 60.0563 32.2617 60.0563 26.4758C60.0563 11.8771 49.9914 0 37.6202 0C25.2493 0 15.1846 11.8771 15.1846 26.4758C15.1846 32.327 16.8236 37.9908 19.8243 42.5982C19.8561 42.6425 19.8882 42.6909 19.9201 42.7435C20.0172 42.8905 20.1158 43.0364 20.2156 43.1812C21.3376 44.6369 22.7763 44.3007 23.1915 44.1629C23.2304 44.1483 23.2699 44.1339 23.3092 44.1194C24.7911 43.5705 26.4372 43.1088 28.2151 42.7455L31.3226 42.1104L28.9788 39.9732C27.072 38.2351 25.8312 35.8779 25.4853 33.336L25.3101 32.0514L24.0179 31.9463C21.8897 31.7733 20.2227 29.9642 20.2227 27.8277C20.2227 25.6986 21.8181 23.9301 23.9338 23.7143L25.358 23.5689L25.3774 22.4359C26.8131 22.0129 33.1426 19.9668 37.5896 15.6126C38.6374 16.8356 42.566 20.8785 49.865 22.4584L49.8836 23.569L51.3086 23.7145C53.4234 23.9305 55.0184 25.6989 55.0184 27.8277C55.0184 29.9641 53.3514 31.773 51.2235 31.9463L49.9312 32.0514L49.756 33.3364C49.41 35.8775 48.1696 38.2345 46.2629 39.9729L43.9192 42.1099L47.027 42.7448C48.8838 43.1243 50.5968 43.6117 52.1312 44.1941C52.693 44.3529 54.2122 44.5717 55.2855 42.7649Z" fill="#694B4B"/>
<path d="M43.657 47.8243V41.963L41.6366 42.4904C40.732 42.7266 39.7972 42.8465 38.8581 42.8465H36.3835C35.4388 42.8465 34.4978 42.7249 33.5868 42.4852L31.5634 41.9528V47.8203L25.546 49.2603L26.8546 53.9314L27.3971 54.2612C28.2092 54.7558 30.4242 55.9779 33.4449 56.6401C34.8656 56.9516 36.2978 57.1095 37.7016 57.1096H37.7022C41.1822 57.1096 44.5879 56.149 47.8244 54.2546L48.3873 53.9256L49.6718 49.3402L43.657 47.8243Z" fill="#FBCB99"/>
<path d="M35.3805 56.64C32.3597 55.9776 30.1449 54.7556 29.3328 54.2611L28.0453 49.5311L32.977 48.3426V42.6974L31.5634 41.9526V47.8202L25.546 49.2601L26.8546 53.9312L27.3971 54.2611C28.2092 54.7556 30.4242 55.9778 33.4449 56.64C34.8656 56.9514 36.2978 57.1094 37.7016 57.1095H37.7022C38.0191 57.1095 38.3351 57.0988 38.6506 57.0828C37.5658 57.0264 36.4701 56.8788 35.3805 56.64Z" fill="#EDBA89"/>
<path d="M45.6198 54.9429C43.0565 56.1044 40.3744 56.6933 37.6477 56.6933C36.2365 56.6933 34.8173 56.5353 33.4301 56.2236C32.1261 55.9307 30.844 55.5066 29.6194 54.9628L27.2626 53.9164L33.2261 75.0001H42.0151L47.9921 53.8682L45.6198 54.9429Z" fill="#F5F5F7"/>
<path d="M27.2622 53.916L33.2259 74.9998H35.1612L29.4759 54.8989L27.2622 53.916Z" fill="#D2D2D7"/>
<path d="M58.1422 52.5946C57.4243 52.1843 56.6122 51.7967 55.7636 51.4366L55.3797 51.2768C52.768 50.2075 49.8985 49.404 48.3901 49.0132L41.111 74.9999H61.6557C63.9452 74.9999 64.352 73.1987 64.415 72.3305V64.585C64.4151 58.2525 61.0202 54.4284 58.1422 52.5946Z" fill="#E5097F"/>
<path d="M26.6098 49.0142C25.1013 49.405 22.2317 50.2083 19.6201 51.2778L19.2362 51.4376C18.3876 51.7977 17.5755 52.1853 16.8576 52.5956C13.9796 54.4294 10.5847 58.2535 10.5847 64.586V72.3315C10.6481 73.1996 11.0546 75.0008 13.3442 75.0008H33.8889L26.6098 49.0142Z" fill="#E5097F"/>
<path d="M13.2464 72.3304V68.2347V64.5848C13.2464 58.2523 16.6415 54.4282 19.5193 52.5943C20.2372 52.184 21.0493 51.7964 21.8979 51.4364L22.2818 51.2766C23.8095 50.6511 25.4236 50.1176 26.8037 49.7033L26.6103 49.0129C25.1018 49.4038 22.2322 50.2071 19.6207 51.2766L19.2367 51.4364C18.3881 51.7964 17.576 52.1839 16.8581 52.5943C13.9801 54.4282 10.5851 58.2523 10.5851 64.5848V72.3303C10.6473 73.1857 11.0445 74.9457 13.2464 74.9972V72.3304Z" fill="#AF0460"/>
<path d="M55.7271 74.9997V64.3596C55.7271 63.6913 55.1857 63.1499 54.5174 63.1499C53.8491 63.1499 53.3077 63.6913 53.3077 64.3596V74.9997H55.7271Z" fill="#AF0460"/>
<path d="M21.5512 74.9997V64.3596C21.5512 63.6913 21.0098 63.1499 20.3415 63.1499C19.6732 63.1499 19.1318 63.6913 19.1318 64.3596V74.9997H21.5512Z" fill="#AF0460"/>
<path d="M52.1394 22.744C51.4889 22.5413 50.7824 22.6597 50.2338 23.0628C49.6859 23.4662 49.3621 24.1066 49.3621 24.7873V30.8862C49.3621 31.5665 49.6856 32.2065 50.2338 32.6094C50.6061 32.8837 51.0513 33.0262 51.5025 33.0262C51.715 33.0262 51.9305 32.9947 52.1388 32.9291C52.5491 32.8015 52.9521 32.6169 53.3366 32.3811C53.5628 32.2425 53.7613 32.0622 53.9221 31.8514C54.1581 31.7297 54.3693 31.5652 54.5457 31.3662C55.4104 30.3883 55.8867 29.135 55.8867 27.8361C55.8867 25.4891 54.3809 23.4426 52.1394 22.744Z" fill="#FBCB99"/>
<path d="M24.9848 23.0626C24.4364 22.6595 23.7291 22.5413 23.0795 22.7434C20.8381 23.4426 19.3315 25.4891 19.3315 27.8358C19.3315 30.1836 20.8381 32.23 23.0795 32.9289C23.2879 32.9944 23.5028 33.026 23.7165 33.026C24.167 33.026 24.6121 32.8835 24.9848 32.6096C25.5335 32.2064 25.857 31.5663 25.857 30.886V24.7866C25.8571 24.1065 25.5337 23.466 24.9848 23.0626Z" fill="#EDBA89"/>
<path d="M50.6545 22.8266C50.6545 22.8266 50.6634 22.7823 50.6667 22.712V22.6054C50.6535 22.3495 50.5408 21.9308 50.0094 21.6713L49.4305 21.5324C43.8301 20.1871 40.4777 17.4752 38.8899 15.8538C38.8899 15.8538 38.8898 15.8536 38.8896 15.8535C37.5392 14.617 36.139 15.8535 36.139 15.8535L36.1388 15.8534C32.3244 19.1714 27.5941 20.8993 25.7014 21.4972L25.4478 21.5772C25.4474 21.5774 25.4472 21.5775 25.4472 21.5775C24.802 21.7895 24.6189 22.2015 24.5743 22.4946V31.8438C24.5743 38.3554 29.8719 43.653 36.3836 43.653H38.8581C45.3695 43.653 50.6667 38.3554 50.6667 31.8438V22.8166L50.6545 22.8266Z" fill="#FBCB99"/>
<path d="M31.9397 23.7285C32.6509 23.7285 33.2328 24.3104 33.2328 25.0216L33.2328 26.3147C33.2328 27.0259 32.6509 27.6078 31.9397 27.6078C31.2285 27.6078 30.6466 27.0259 30.6466 26.3147L30.6466 25.0216C30.6466 24.3104 31.2285 23.7285 31.9397 23.7285Z" fill="#623F33"/>
<path d="M43.1897 23.7285C43.9009 23.7285 44.4828 24.3104 44.4828 25.0216L44.4828 26.3147C44.4828 27.0259 43.9009 27.6078 43.1897 27.6078C42.4785 27.6078 41.8966 27.0259 41.8966 26.3147L41.8966 25.0216C41.8966 24.3104 42.4785 23.7285 43.1897 23.7285Z" fill="#623F33"/>
<path d="M37.5323 39.2164C35.8771 39.2164 34.3288 38.6974 33.2845 37.7922C32.8595 37.4238 32.749 36.6859 33.0386 36.1443C33.3272 35.6034 33.9069 35.4626 34.3319 35.831C35.0638 36.4652 36.2603 36.8441 37.5323 36.8441C38.8043 36.8441 40.0008 36.4652 40.7327 35.831C41.1587 35.4615 41.7369 35.6028 42.026 36.1443C42.3156 36.6859 42.2051 37.4238 41.7801 37.7922C40.736 38.6974 39.1876 39.2164 37.5323 39.2164Z" fill="#E5097F"/>
<path d="M38.4397 15.5294C37.2454 14.8781 36.139 15.8536 36.139 15.8536L36.1388 15.8534C32.3244 19.1714 27.5941 20.8994 25.7014 21.4973L25.4478 21.5773C25.4474 21.5774 25.4472 21.5776 25.4472 21.5776C24.802 21.7895 24.6189 22.2016 24.5743 22.4947V31.8439C24.5743 38.3554 29.8719 43.653 36.3836 43.653H38.3191C31.8074 43.653 26.5098 38.3554 26.5098 31.8439V23.1765C26.5098 22.1111 27.2913 21.6451 27.7391 21.4646C27.8355 21.4339 27.9367 21.4009 28.0454 21.3647L28.0463 21.3646H28.046C30.2097 20.6448 34.7701 18.8525 38.3877 15.5764L38.4397 15.5294Z" fill="#EDBA89"/>
<path d="M38.6574 31.6061C39.1021 31.6061 39.4638 31.9679 39.4638 32.4125C39.4638 32.8571 39.102 33.2189 38.6574 33.2189H36.5968C36.1521 33.2189 35.7904 32.8571 35.7904 32.4125V28.4816C35.7904 28.0368 36.1522 27.6752 36.5968 27.6752C37.0414 27.6752 37.4032 28.037 37.4032 28.4816V31.6061H38.6574Z" fill="#EDBA89"/>
<path d="M19.9202 42.7436C20.0173 42.8907 20.1159 43.0366 20.2157 43.1813C21.3823 44.6952 22.8913 44.2713 23.2362 44.1478C23.2611 44.1384 23.2849 44.1288 23.3097 44.1194L23.1156 43.8568C19.5615 39.0442 17.6041 32.8716 17.6041 26.4758C17.6041 12.3559 27.0193 0.782958 38.8301 0.0386718C38.4296 0.013623 38.0265 0 37.6206 0C25.2496 0 15.1848 11.8771 15.1848 26.4758C15.1848 32.327 16.8238 37.9908 19.8246 42.5982C19.8562 42.6425 19.8883 42.691 19.9202 42.7436Z" fill="#563B3B"/>
</g>
<defs>
<clipPath id="clip0">
<rect width="75" height="75" fill="white"/>
</clipPath>
</defs>
</svg>
